<svg class="animated" id="freepik_stories-holding-the-arrow" xmlns="http://www.w3.org/2000/svg" viewBox="0 0 750 500" version="1.1" xmlns:xlink="http://www.w3.org/1999/xlink" xmlns:svgjs="http://svgjs.com/svgjs"><style>svg#freepik_stories-holding-the-arrow:not(.animated) .animable {opacity: 0;}svg#freepik_stories-holding-the-arrow.animated #freepik--background-complete--inject-257 {animation: 1s 1 forwards cubic-bezier(.36,-0.01,.5,1.38) slideDown;animation-delay: 0s;}svg#freepik_stories-holding-the-arrow.animated #freepik--Floor--inject-257 {animation: 1s 1 forwards cubic-bezier(.36,-0.01,.5,1.38) slideRight;animation-delay: 0s;}svg#freepik_stories-holding-the-arrow.animated #freepik--speech-bubble-3--inject-257 {animation: 1s 1 forwards cubic-bezier(.36,-0.01,.5,1.38) lightSpeedRight;animation-delay: 0s;}svg#freepik_stories-holding-the-arrow.animated #freepik--speech-bubble-2--inject-257 {animation: 1s 1 forwards cubic-bezier(.36,-0.01,.5,1.38) slideUp;animation-delay: 0s;}svg#freepik_stories-holding-the-arrow.animated #freepik--speech-bubble-1--inject-257 {animation: 1s 1 forwards cubic-bezier(.36,-0.01,.5,1.38) slideRight;animation-delay: 0s;}svg#freepik_stories-holding-the-arrow.animated #freepik--characters-2--inject-257 {animation: 1s 1 forwards cubic-bezier(.36,-0.01,.5,1.38) slideRight;animation-delay: 0s;}svg#freepik_stories-holding-the-arrow.animated #freepik--character-1--inject-257 {animation: 1s 1 forwards cubic-bezier(.36,-0.01,.5,1.38) lightSpeedRight;animation-delay: 0s;}            @keyframes slideDown {                0% {                    opacity: 0;                    transform: translateY(-30px);                }                100% {                    opacity: 1;                    transform: translateY(0);                }            }                    @keyframes slideRight {                0% {                    opacity: 0;                    transform: translateX(30px);                }                100% {                    opacity: 1;                    transform: translateX(0);                }            }                    @keyframes lightSpeedRight {              from {                transform: translate3d(50%, 0, 0) skewX(-20deg);                opacity: 0;              }              60% {                transform: skewX(10deg);                opacity: 1;              }              80% {                transform: skewX(-2deg);              }              to {                opacity: 1;                transform: translate3d(0, 0, 0);              }            }                    @keyframes slideUp {                0% {                    opacity: 0;                    transform: translateY(30px);                }                100% {                    opacity: 1;                    transform: inherit;                }            }        .animator-hidden { display: none; }</style><g id="freepik--background-complete--inject-257" class="animable" style="transform-origin: 373.345px 257.71px;"><rect x="65.47" y="130.15" width="47.84" height="12.66" style="fill: rgb(245, 245, 245); transform-origin: 89.39px 136.48px;" id="eltyzbhqf4t7" class="animable"></rect><path d="M93.08,156.14a1.3,1.3,0,0,1,0-.23c0-.17,0-.39,0-.65,0-.6,0-1.43,0-2.49,0-2.19-.05-5.33-.08-9.29l.15.15-47.84.09.24-.24h0v12.64l-.24-.24,34.09.11,10.06.06,2.72,0,.72,0,.25,0h-.22l-.69,0-2.67,0-10,.07-34.26.1H45v-.23q0-3.06,0-6.23V143.5h0c.49-.49.14-.14.25-.24l47.84.09h.15v.15c0,4-.07,7.17-.09,9.37q0,1.58,0,2.46c0,.26,0,.46,0,.62A1.66,1.66,0,0,1,93.08,156.14Z" style="fill: rgb(224, 224, 224); transform-origin: 69.12px 149.726px;" id="elrh7co46dvj9" class="animable"></path><rect x="455.99" y="310.1" width="47.84" height="12.66" style="fill: rgb(245, 245, 245); transform-origin: 479.91px 316.43px;" id="elzmeahzoc3l" class="animable"></rect><rect x="656.19" y="137.53" width="47.84" height="12.66" style="fill: rgb(245, 245, 245); transform-origin: 680.11px 143.86px;" id="elfodvubcsdv7" class="animable"></rect><rect x="455.8" y="39.57" width="47.84" height="12.66" style="fill: rgb(245, 245, 245); transform-origin: 479.72px 45.9px;" id="elwqk285qiml" class="animable"></rect><path d="M484.82,375a1.3,1.3,0,0,1,0-.23c0-.17,0-.39,0-.65,0-.6,0-1.43,0-2.49,0-2.19-.05-5.33-.08-9.29l.15.15-47.84.09.24-.24h0V375l-.24-.24,34.09.11,10.06.06,2.72,0h.71l.26,0h-.22l-.69,0-2.67,0-10,.07-34.26.1h-.24V375q0-3.06,0-6.23V362.4h0c.49-.49.14-.13.25-.24l47.84.09H485v.15c0,4-.07,7.17-.09,9.37,0,1.06,0,1.87,0,2.46,0,.26,0,.46,0,.63A1.57,1.57,0,0,1,484.82,375Z" style="fill: rgb(224, 224, 224); transform-origin: 460.905px 368.617px;" id="elrzd0qna0kul" class="animable"></path><rect x="141.47" y="52.23" width="47.84" height="12.66" style="fill: rgb(245, 245, 245); transform-origin: 165.39px 58.56px;" id="el827bm7f2xu" class="animable"></rect><path d="M705.46,314.67a1,1,0,0,1,0-.23c0-.17,0-.38,0-.65,0-.59,0-1.42,0-2.49,0-2.18,0-5.32-.08-9.28l.15.14-47.84.1.24-.24h0v12.63l-.24-.24,34.09.11,10.06.07,2.72,0,.72,0h.25l-.22,0h-.69l-2.67,0-10,.07-34.26.11h-.24v-6.46c0-1.06,0-2.12,0-3.2V302h0l.25-.25,47.84.1h.15V302c0,4-.07,7.16-.09,9.37q0,1.58,0,2.46c0,.25,0,.46,0,.62A1.23,1.23,0,0,1,705.46,314.67Z" style="fill: rgb(224, 224, 224); transform-origin: 681.57px 308.26px;" id="elfq5lvmzcn7k" class="animable"></path><path d="M89,391.34a2.07,2.07,0,0,1,0-.23c0-.17,0-.38,0-.65,0-.59,0-1.42,0-2.49,0-2.18,0-5.32-.08-9.28l.15.14-47.84.1.24-.24h0v12.63l-.24-.24,34.09.11,10.07.07,2.72,0,.71,0H89s-.07,0-.22,0h-.68l-2.67,0-10,.07-34.26.11H41V378.71h0l.24-.25,47.84.1h.15v.15c0,4-.06,7.16-.08,9.37,0,1.05,0,1.87,0,2.46,0,.25,0,.46,0,.62S89.05,391.35,89,391.34Z" style="fill: rgb(224, 224, 224); transform-origin: 65.115px 384.95px;" id="el1z9v7q8rhhr" class="animable"></path><rect x="294.13" y="292.36" width="47.84" height="12.66" style="fill: rgb(245, 245, 245); transform-origin: 318.05px 298.69px;" id="elljy83jeq1eg" class="animable"></rect><path d="M321.74,318.34a2.07,2.07,0,0,1,0-.23l0-.64c0-.6,0-1.43,0-2.5,0-2.18-.05-5.32-.09-9.28l.15.15-47.83.09c.1-.11-.25.25.24-.24h0v3.22c0,1.07,0,2.13,0,3.19v6.22l-.24-.23,34.09.1,10.07.07,2.72,0,.71,0h.25s-.07,0-.22,0l-.68,0-2.67,0-10,.06-34.26.11h-.24V305.71h0l.25-.25,47.83.1h.15v.15c0,4-.06,7.17-.08,9.37,0,1.05,0,1.87,0,2.46,0,.26,0,.46,0,.62S321.75,318.35,321.74,318.34Z" style="fill: rgb(224, 224, 224); transform-origin: 297.855px 311.945px;" id="ely7i1ec5ow" class="animable"></path><path d="M334.51,89.83s0-.08,0-.23,0-.38,0-.65c0-.59,0-1.42,0-2.49,0-2.18-.05-5.32-.08-9.28l.14.15-47.83.09.24-.24h0v6.41c0,2.11,0,4.19,0,6.22l-.24-.23,34.1.1,10.06.07,2.72,0,.71,0h.25s-.06,0-.22,0l-.68,0-2.67,0-10,.06-34.26.11h-.23v-.24c0-2,0-4.11,0-6.22V77.2h0l.25-.25,47.83.1h.15v.15c0,4-.06,7.17-.08,9.37,0,1,0,1.87,0,2.46,0,.26,0,.46,0,.62S334.52,89.84,334.51,89.83Z" style="fill: rgb(224, 224, 224); transform-origin: 310.635px 83.435px;" id="el46x53jogvuh" class="animable"></path><path d="M341,77.18s0-.09,0-.24,0-.4,0-.67c0-.63,0-1.47,0-2.54,0-2.22-.05-5.35-.09-9.21l.17.18-28.74.07c-.22.21.29-.3.24-.25h0V71q0,3.18,0,6.14l-.23-.23,20.56.11,6,.06,1.61,0,.58,0a3.2,3.2,0,0,1-.52,0l-1.57,0L333,77.3l-20.72.11H312v-.23q0-3,0-6.14c0-1.06,0-2.13,0-3.22V64.53h0l.25-.24,28.74.07h.18v.17c0,3.9-.08,7.07-.1,9.32,0,1,0,1.88,0,2.49A6.55,6.55,0,0,1,341,77.18Z" style="fill: rgb(224, 224, 224); transform-origin: 326.585px 70.85px;" id="elc6cqwce3ntq" class="animable"></path><path d="M484.82,235a1,1,0,0,1,0-.23c0-.17,0-.38,0-.65,0-.59,0-1.42,0-2.49,0-2.18-.05-5.32-.08-9.28l.15.14-47.84.1.24-.24h0V235l-.24-.24,34.09.11,10.06.07,2.72,0,.71,0h.26l-.22,0h-.69l-2.67,0-10,.07-34.26.11h-.24V235c0-2,0-4.11,0-6.22v-6.41h0l.25-.25,47.84.1H485v.15c0,4-.07,7.16-.09,9.37q0,1.58,0,2.46l0,.62A1.23,1.23,0,0,1,484.82,235Z" style="fill: rgb(224, 224, 224); transform-origin: 460.905px 228.62px;" id="el0hdk98f1rcj7" class="animable"></path><path d="M491.3,222.35s0-.09,0-.25,0-.4,0-.67c0-.62,0-1.47,0-2.53,0-2.22-.05-5.36-.09-9.21l.17.18-28.74.06.24-.24h0v6.5c0,2.12,0,4.17,0,6.14l-.23-.24,20.56.11,6,.07,1.62,0,.57,0a4.77,4.77,0,0,1-.52,0l-1.57,0-5.93.07-20.72.11h-.23v-.23q0-3,0-6.14v-6.5h0l.24-.24,28.74.06h.18v.17c0,3.9-.07,7.07-.1,9.31,0,1.06,0,1.89,0,2.5A4.8,4.8,0,0,1,491.3,222.35Z" style="fill: rgb(224, 224, 224); transform-origin: 477.01px 215.895px;" id="elbfaasitvwtv" class="animable"></path><path d="M689.41,424a2.07,2.07,0,0,1,0-.23l0-.65q0-.89,0-2.49c0-2.18-.05-5.32-.09-9.28l.15.15-47.84.09.25-.24h0V413c0,.54,0,1.08,0,1.61V424l-.24-.24,34.09.11,10.07.07,2.72,0,.71,0h.25s-.07,0-.22,0h-.68l-2.67,0-10,.06-34.26.11h-.24V411.35h0c.49-.49.13-.14.24-.25l47.84.1h.15v.15c0,4-.06,7.17-.08,9.37,0,1.05,0,1.87,0,2.46,0,.25,0,.46,0,.62S689.42,424,689.41,424Z" style="fill: rgb(224, 224, 224); transform-origin: 665.525px 417.595px;" id="eltr1fgxtjqf" class="animable"></path><path d="M695.9,411.33a1.35,1.35,0,0,1,0-.24c0-.19,0-.41,0-.67,0-.63,0-1.47,0-2.54,0-2.22-.06-5.36-.1-9.21l.18.18-28.74.06.24-.24h0V402c0,1.09,0,2.16,0,3.22v6.14l-.24-.23,20.57.11,6,.06,1.61,0,.58,0a3.2,3.2,0,0,1-.52,0l-1.57,0-5.94.07-20.72.11h-.23v-.23q0-3,0-6.14v-6.5h0c0,.05.46-.46.25-.24l28.74.07h.17v.17c0,3.9-.07,7.07-.09,9.31,0,1.06,0,1.89,0,2.5S695.91,411.34,695.9,411.33Z" style="fill: rgb(224, 224, 224); transform-origin: 681.6px 404.897px;" id="eluu1eugk61i" class="animable"></path><path d="M214.12,402.77A26.14,26.14,0,0,0,203,398.93c-1.83-.19-3.82-.13-5.28,1a1.12,1.12,0,0,0-.55,1,1.24,1.24,0,0,0,.52.66,15.94,15.94,0,0,0,16.46,1.24" style="fill: rgb(224, 224, 224); transform-origin: 205.66px 401.699px;" id="elzmnvaoo01af" class="animable"></path><path d="M213.84,402.46a54.45,54.45,0,0,1-7.21-6.34,18.28,18.28,0,0,1-4.52-8.36,3.4,3.4,0,0,1,.36-2.8c5.74,4.49,10.26,10.29,11.37,17.5" style="fill: rgb(224, 224, 224); transform-origin: 207.899px 393.71px;" id="el696kri786og" class="animable"></path><path d="M214.06,402.73a26.15,26.15,0,0,1,.14-9.46,12.77,12.77,0,0,1,5-7.81c1,2.32.56,5-.14,7.42a36.18,36.18,0,0,1-5,10.52" style="fill: rgb(224, 224, 224); transform-origin: 216.741px 394.43px;" id="elwtb0zr3imdi" class="animable"></path><path d="M219.7,412.82a16.45,16.45,0,0,0-8.95,4.53,16.85,16.85,0,0,0-5.12,8.78c3.35-.2,6.2-2.57,8.26-5.22s3.49-5.56,5.76-8" style="fill: rgb(224, 224, 224); transform-origin: 212.665px 419.475px;" id="el19ifhj2ujca" class="animable"></path><path d="M220.92,414.43a22,22,0,0,1,2.55-20.87,26.59,26.59,0,0,1-2.55,20.87" style="fill: rgb(224, 224, 224); transform-origin: 221.96px 403.995px;" id="el829l25n815" class="animable"></path><path d="M228.36,423.29a16,16,0,0,0-15.26,8.79c-.19.37-.36.85-.1,1.19a1.12,1.12,0,0,0,1,.3c3-.19,5.67-2,7.87-4.06s4.12-4.44,6.55-6.23" style="fill: rgb(224, 224, 224); transform-origin: 220.644px 428.426px;" id="elwo2m9ot9z7d" class="animable"></path><path d="M228.12,422.81a28.37,28.37,0,0,1-.28-15.87c.56-2.05,1.5-4.2,3.39-5.16a.67.67,0,0,1,.51-.09.69.69,0,0,1,.33.38,9.61,9.61,0,0,1,.8,4.56,29,29,0,0,1-.71,4.61c-.6,2.81-.92,5.84-2.46,8.27a16,16,0,0,0-1,1.82c-.3.62-.3.84-.57,1.33" style="fill: rgb(224, 224, 224); transform-origin: 229.868px 412.242px;" id="elk6c4kwx45w" class="animable"></path><path d="M247.82,425.74a20.47,20.47,0,0,1,3.58-16.82c.26-.34.6-.7,1-.66.65.06.81.92.79,1.56a30.46,30.46,0,0,1-5.39,15.92" style="fill: rgb(224, 224, 224); transform-origin: 250.251px 416.998px;" id="el5g71fp8wpqb" class="animable"></path><path d="M249.59,427a24.48,24.48,0,0,0,20.09-4.09,16.28,16.28,0,0,0-10.87-1.33,15.51,15.51,0,0,0-9.22,5.42" style="fill: rgb(224, 224, 224); transform-origin: 259.635px 424.417px;" id="elq64qr7vip98" class="animable"></path><path d="M251.09,423.26a23.25,23.25,0,0,1,18.23-10.54,11.21,11.21,0,0,1-6,6.59,33,33,0,0,1-8.75,2.56c-1.17.23-2.77.48-3.52,1.39" style="fill: rgb(224, 224, 224); transform-origin: 260.185px 417.99px;" id="elcmw7hibxv3g" class="animable"></path><path d="M248.19,405.33a53,53,0,0,0,2.33-10.68,17.76,17.76,0,0,0-2.12-10.56,23.23,23.23,0,0,0-.31,21.61" style="fill: rgb(224, 224, 224); transform-origin: 248.102px 394.895px;" id="elasll5we3lnc" class="animable"></path><path d="M260.07,399.33c4.12-7.5,12.54-13.49,21.06-14.33-3.29,8.18-12.25,14.5-21.06,14.33" style="fill: rgb(224, 224, 224); transform-origin: 270.6px 392.167px;" id="elstseqhzn3aj" class="animable"></path><path d="M257.47,400.8c6.16.93,11.4,4.86,17.15,7.24a7.69,7.69,0,0,0,3.87.75,3,3,0,0,0,1.9-5.37,8.33,8.33,0,0,0-2.81-1.71c-6.26-2.6-13-2.67-19.58-1.09" style="fill: rgb(224, 224, 224); transform-origin: 269.511px 404.187px;" id="ellhrb8sv82nh" class="animable"></path><path d="M253.91,405.11c1.4.4,1.87,1.12,3,2.06a32.11,32.11,0,0,0,13,6.68c.49.12,1.14.17,1.39-.28s-.06-.86-.34-1.21a17.94,17.94,0,0,0-7.85-5.33c-3-1.12-5.6-2.47-9.18-2.18" style="fill: rgb(224, 224, 224); transform-origin: 262.651px 409.372px;" id="elpd9wj9vfyq" class="animable"></path><path d="M249.89,379.05a24.63,24.63,0,0,0,18.87,6.42,1.3,1.3,0,0,0,.86-.31c.47-.52-.1-1.32-.65-1.75-5.55-4.32-12.26-6.11-19.08-4.36" style="fill: rgb(224, 224, 224); transform-origin: 259.842px 381.976px;" id="elaiu1u082ro7" class="animable"></path><path d="M254.66,377.31a26.29,26.29,0,0,1,23.54-3.89A18.78,18.78,0,0,1,267,378.35a35.57,35.57,0,0,1-12.32-1" style="fill: rgb(224, 224, 224); transform-origin: 266.43px 375.347px;" id="elqqn8ryxc2zi" class="animable"></path><path d="M252.77,365.33c-.55-5.54-.2-9.91-.58-15.47,0-.44-.13-1-.54-1.14-.58-.22-1.06.49-1.25,1.08a17.73,17.73,0,0,0,2.36,15.41" style="fill: rgb(224, 224, 224); transform-origin: 251.181px 357.004px;" id="elv53ysh5yeyj" class="animable"></path><path d="M252.37,365.94a32.68,32.68,0,0,0,9.17-8.91c1.81-2.48,3.33-5.45,2.92-8.49a8.77,8.77,0,0,0-6.61,3.28,18.35,18.35,0,0,0-3.37,6.79c-.74,2.43-1.25,4.94-2.11,7.33" style="fill: rgb(224, 224, 224); transform-origin: 258.449px 357.24px;" id="el12x7z1j9n58" class="animable"></path><path d="M261.38,363.44a74.1,74.1,0,0,0,22.56-13.31c-2.69-1.08-5.78-.43-8.47.65a26.73,26.73,0,0,0-14.21,12.6" style="fill: rgb(224, 224, 224); transform-origin: 272.6px 356.508px;" id="el21gmjp1jhdr" class="animable"></path><path d="M254.9,369a46.13,46.13,0,0,0,12.53.06,53.24,53.24,0,0,0,11.7-3.89,1.38,1.38,0,0,0,.79-.6.92.92,0,0,0-.28-1,2.43,2.43,0,0,0-1-.47,21.68,21.68,0,0,0-12.64.76A58.5,58.5,0,0,0,254.9,369" style="fill: rgb(224, 224, 224); transform-origin: 267.434px 365.978px;" id="ell3mqhz98rmg" class="animable"></path><path d="M231.11,379.24a22.21,22.21,0,0,1-.2-18.35c1.73,2.64,1.94,6,1.62,9.12s-1.27,6.36-1.33,9.51" style="fill: rgb(224, 224, 224); transform-origin: 230.84px 370.205px;" id="elp42qcgsdqj" class="animable"></path><path d="M219.76,373.51a25.6,25.6,0,0,0-19,8.1,17.76,17.76,0,0,0,10.41-1.93,53,53,0,0,0,8.92-6" style="fill: rgb(224, 224, 224); transform-origin: 210.425px 377.622px;" id="elc7nyreel408" class="animable"></path><path d="M212.13,371c-3.47-.28-6.81-.71-10.15.31a12.15,12.15,0,0,0-7.74,6.56,18.31,18.31,0,0,0,9.52-1.8,55,55,0,0,0,8.37-5.07" style="fill: rgb(224, 224, 224); transform-origin: 203.185px 374.298px;" id="elyuxgdq0805q" class="animable"></path><path d="M223.43,371.08c-3.12-2.05-6.33-4.13-10-5s-7.85-.22-10.38,2.52c2.94,1.72,6.51,1.93,9.93,1.93s7.59-.05,10.81,1.09" style="fill: rgb(224, 224, 224); transform-origin: 213.42px 368.669px;" id="el1miy2zgg4xt" class="animable"></path><path d="M223.45,371.24c-5.34-5.24-7.36-14.66-5.22-21.83a33.27,33.27,0,0,1,5.22,21.83" style="fill: rgb(224, 224, 224); transform-origin: 220.519px 360.325px;" id="elkxc3nkcn89f" class="animable"></path><path d="M238.13,356.39c1-2.34,1.71-4.8,2.62-7.18a20.41,20.41,0,0,1,3.73-6.62,9.87,9.87,0,0,1,6.61-3.43,26.6,26.6,0,0,1-12.83,17.26" style="fill: rgb(224, 224, 224); transform-origin: 244.61px 347.79px;" id="elyv8e3aschod" class="animable"></path><path d="M235.47,359.48c-1.67-2.29-3.59-5.4-5.85-7.12a9.82,9.82,0,0,0-8-2.09,18.54,18.54,0,0,0,13.81,9.21" style="fill: rgb(224, 224, 224); transform-origin: 228.545px 354.797px;" id="elefwqrr2ib15" class="animable"></path><path d="M236,356.58a39.69,39.69,0,0,1-2.63-8.53,13.35,13.35,0,0,1,1.33-8.67c2.93,5.54,3.88,11.48,1.45,17.26" style="fill: rgb(224, 224, 224); transform-origin: 235.341px 348.01px;" id="elmppyxae082b" class="animable"></path><path d="M238.15,339.38c1.66-5.5,6.69-9.54,12.12-11.39a4.48,4.48,0,0,1,2.13-.32A1.84,1.84,0,0,1,254,329c.2.94-.57,1.77-1.3,2.4a41.32,41.32,0,0,1-14.51,8" style="fill: rgb(224, 224, 224); transform-origin: 246.091px 333.525px;" id="elo9kmervj2od" class="animable"></path><path d="M238.21,334.88a39.69,39.69,0,0,1,1.59-10.48c1.15-3.36,3.37-6.51,6.6-8,.55,3.57-1,7.13-2.93,10.21s-4.2,6-5.34,9.41" style="fill: rgb(224, 224, 224); transform-origin: 242.321px 326.21px;" id="eld6s6v7mao5f" class="animable"></path><path d="M238.13,337.32c-1.37-4-1.52-9.08-3.91-12.57-1.68-2.44-4.36-4.1-5.8-6.68a10.16,10.16,0,0,0,.33,7.58,21.85,21.85,0,0,0,4.44,6.35c1.77,1.89,3.29,3.32,4.94,5.32" style="fill: rgb(224, 224, 224); transform-origin: 232.986px 327.695px;" id="elkhzw85slpol" class="animable"></path><path d="M238.15,455.18c-.1,0-.19-26.69-.2-59.62s.07-59.63.18-59.63.2,26.69.2,59.63S238.26,455.18,238.15,455.18Z" style="fill: rgb(224, 224, 224); transform-origin: 238.14px 395.555px;" id="elnkndkudmhv" class="animable"></path><path d="M261.49,375.21a6.63,6.63,0,0,1-1,.38l-2.76.93c-2.33.79-5.53,1.94-9,3.36s-6.68,2.68-8.53,4.28a6.27,6.27,0,0,0-1.71,2.26c-.27.63-.32,1-.35,1s0-.1,0-.28a4.23,4.23,0,0,1,.2-.78A6,6,0,0,1,240,384a15.47,15.47,0,0,1,3.7-2.3c1.48-.69,3.12-1.41,4.86-2.12,3.48-1.43,6.71-2.54,9.07-3.27,1.17-.37,2.13-.64,2.8-.82A5.49,5.49,0,0,1,261.49,375.21Z" style="fill: rgb(224, 224, 224); transform-origin: 249.808px 381.315px;" id="elwno0h9l4zx" class="animable"></path><path d="M269.13,356.42s-.08.12-.28.3l-.85.81-3.2,2.9-10.65,9.48c-4.15,3.7-7.74,7.24-10.23,9.9-1.25,1.33-2.23,2.43-2.9,3.2-.31.35-.57.64-.77.88s-.28.3-.29.29a1.85,1.85,0,0,1,.23-.34c.16-.21.39-.53.71-.93.64-.8,1.59-1.93,2.82-3.29a134.73,134.73,0,0,1,10.18-10c4.16-3.69,8-7,10.72-9.39l3.28-2.81.9-.75A1.93,1.93,0,0,1,269.13,356.42Z" style="fill: rgb(224, 224, 224); transform-origin: 254.545px 370.301px;" id="eli94jp8ztg7s" class="animable"></path><path d="M249.67,373.67c-.11,0,.76-2.05,1.62-4.58s1.28-4.68,1.39-4.66a15.29,15.29,0,0,1-1,4.78,31.79,31.79,0,0,1-1.3,3.21A4.78,4.78,0,0,1,249.67,373.67Z" style="fill: rgb(224, 224, 224); transform-origin: 251.17px 369.05px;" id="eld6m8lpj0pfi" class="animable"></path><path d="M238.18,389.83a4.58,4.58,0,0,1-.64-.74L235.9,387c-1.38-1.78-3.28-4.24-5.42-6.93s-4.1-5.11-5.52-6.85l-1.68-2.08a3.72,3.72,0,0,1-.57-.79,4.93,4.93,0,0,1,.69.69c.43.47,1,1.15,1.77,2,1.48,1.7,3.47,4.09,5.61,6.79s4,5.18,5.34,7c.66.92,1.19,1.66,1.54,2.18A5.76,5.76,0,0,1,238.18,389.83Z" style="fill: rgb(224, 224, 224); transform-origin: 230.445px 380.09px;" id="eli10x65vuyq" class="animable"></path><path d="M233.06,383.27a9.65,9.65,0,0,1-2.14-4,11.52,11.52,0,0,1-.49-4h.17c-.07.31-.13.47-.16.47s0-.18,0-.49h.17a18.31,18.31,0,0,0,.68,3.93A31.44,31.44,0,0,0,233.06,383.27Z" style="fill: rgb(224, 224, 224); transform-origin: 231.737px 379.26px;" id="elsoqqlu6z72p" class="animable"></path><path d="M226.46,375a6.79,6.79,0,0,0-1.5-.87,10,10,0,0,0-4.15-.33,25.73,25.73,0,0,0-4.19.67,12.46,12.46,0,0,1-1.72.42,5.84,5.84,0,0,1,1.65-.68,19.56,19.56,0,0,1,4.23-.8,9,9,0,0,1,4.28.47A2.68,2.68,0,0,1,226.46,375Z" style="fill: rgb(224, 224, 224); transform-origin: 220.68px 374.166px;" id="ele1qxwbzwx1t" class="animable"></path><path d="M224.89,372.94c0,.07-.87-.34-2.29-.83a23,23,0,0,0-11.55-.88c-1.48.26-2.37.54-2.39.48s.2-.12.6-.26A14.41,14.41,0,0,1,211,371a20.49,20.49,0,0,1,11.7.89,13.68,13.68,0,0,1,1.64.75C224.71,372.8,224.91,372.92,224.89,372.94Z" style="fill: rgb(224, 224, 224); transform-origin: 216.775px 371.739px;" id="el4jdkbhgg09k" class="animable"></path><path d="M238.13,364.43a95.92,95.92,0,0,1-3-11.71,95.92,95.92,0,0,1,3,11.71Z" style="fill: rgb(224, 224, 224); transform-origin: 236.63px 358.575px;" id="elw41ey2xznnn" class="animable"></path><path d="M238.23,364.43a26.81,26.81,0,0,0-1.85-3.48,14.94,14.94,0,0,0-2.73-2.81,2.59,2.59,0,0,1,1.06.54,8.68,8.68,0,0,1,2,2.05A7.62,7.62,0,0,1,238.23,364.43Z" style="fill: rgb(224, 224, 224); transform-origin: 235.94px 361.285px;" id="el4mhlqnt4mz2" class="animable"></path><path d="M238.15,441s-.12-.64-.42-1.77a24.3,24.3,0,0,0-1.78-4.63,63.81,63.81,0,0,0-9.47-13.33c-2.11-2.42-4.16-4.69-5.9-6.88a47.74,47.74,0,0,1-4.22-6.08,28.59,28.59,0,0,1-2.13-4.52c-.2-.56-.34-1-.42-1.3a1.82,1.82,0,0,1-.11-.46s.23.61.67,1.7a33.39,33.39,0,0,0,2.22,4.44,51.31,51.31,0,0,0,4.27,6c1.74,2.16,3.8,4.42,5.91,6.84a60.74,60.74,0,0,1,9.43,13.47,23.81,23.81,0,0,1,1.68,4.71c.12.58.21,1,.24,1.34A1.85,1.85,0,0,1,238.15,441Z" style="fill: rgb(224, 224, 224); transform-origin: 225.927px 421.515px;" id="el4sayn4u7jzq" class="animable"></path><path d="M259.24,417.14a10,10,0,0,1-1.11.62,24.37,24.37,0,0,0-2.86,1.89,32.1,32.1,0,0,0-3.77,3.44c-1.32,1.39-2.68,3-4.07,4.75-2.77,3.48-5.37,6.57-6.93,9-.79,1.22-1.36,2.25-1.74,3a9.21,9.21,0,0,1-.61,1.11,1.52,1.52,0,0,1,.11-.31c.08-.2.19-.5.37-.87a28.58,28.58,0,0,1,1.64-3,100.06,100.06,0,0,1,6.86-9.12c1.39-1.74,2.77-3.37,4.12-4.76a31,31,0,0,1,3.85-3.41,20.87,20.87,0,0,1,3-1.8c.37-.19.67-.3.87-.39A1,1,0,0,1,259.24,417.14Z" style="fill: rgb(224, 224, 224); transform-origin: 248.695px 429.045px;" id="elvm7pxqjj5e" class="animable"></path><path d="M259.65,424.86a14.51,14.51,0,0,1-2.34.34,31.51,31.51,0,0,0-5.53,1.09,16.5,16.5,0,0,0-5,2.61c-1.15.88-1.69,1.61-1.74,1.57s.09-.21.35-.54a9.51,9.51,0,0,1,1.21-1.25,15.27,15.27,0,0,1,5-2.75,25.22,25.22,0,0,1,5.63-1A13.7,13.7,0,0,1,259.65,424.86Z" style="fill: rgb(224, 224, 224); transform-origin: 252.34px 427.654px;" id="elijbzb5xbzfd" class="animable"></path><path d="M245.76,429.62c-.12-.07.93-1.68,1.75-3.84s1-4.1,1.08-4.07a3.58,3.58,0,0,1,0,1.25,13,13,0,0,1-.68,3,14.46,14.46,0,0,1-1.35,2.71C246.1,429.27,245.81,429.65,245.76,429.62Z" style="fill: rgb(224, 224, 224); transform-origin: 247.198px 425.666px;" id="eltb3g04j1ubn" class="animable"></path><path d="M266.07,396.4a2.5,2.5,0,0,1-.38.2l-1.1.5c-.48.2-1.06.46-1.72.81s-1.43.69-2.23,1.17l-1.27.73c-.44.25-.88.55-1.35.84-.94.57-1.88,1.28-2.88,2A49.71,49.71,0,0,0,244,414.14c-.68,1-1.35,2-1.89,2.95-.27.47-.56.92-.8,1.37l-.68,1.3c-.45.82-.78,1.6-1.1,2.27s-.56,1.26-.75,1.75l-.46,1.11c-.11.25-.17.39-.19.38a2.26,2.26,0,0,1,.12-.41l.39-1.14c.17-.49.39-1.1.7-1.78s.61-1.47,1-2.3l.66-1.32c.23-.46.51-.91.79-1.39.52-1,1.19-1.95,1.87-3a49.81,49.81,0,0,1,5.1-6.27,51.33,51.33,0,0,1,6.09-5.31c1-.72,2-1.41,2.92-2,.47-.28.92-.58,1.37-.83l1.29-.71c.82-.47,1.6-.8,2.27-1.12a17.31,17.31,0,0,1,1.76-.76l1.12-.44A1.85,1.85,0,0,1,266.07,396.4Z" style="fill: rgb(224, 224, 224); transform-origin: 252.1px 410.835px;" id="elg9de2vkijjb" class="animable"></path><path d="M249.38,407.58a2.67,2.67,0,0,1,.92-1.37,5.79,5.79,0,0,1,3.69-1.42,10.07,10.07,0,0,1,3.89.76,5.44,5.44,0,0,1,1.48.72,9.54,9.54,0,0,1-1.57-.46,11.69,11.69,0,0,0-3.78-.63,5.93,5.93,0,0,0-3.53,1.24A10,10,0,0,0,249.38,407.58Z" style="fill: rgb(224, 224, 224); transform-origin: 254.37px 406.185px;" id="elea26z068ym" class="animable"></path><path d="M246.89,410.15a14.46,14.46,0,0,0,1.05-3.41,14.29,14.29,0,0,0-.24-3.57,2.32,2.32,0,0,1,.43,1,6.75,6.75,0,0,1,.19,2.61,7,7,0,0,1-.78,2.5C247.21,409.87,246.92,410.18,246.89,410.15Z" style="fill: rgb(224, 224, 224); transform-origin: 247.63px 406.661px;" id="el9osy4djc8ed" class="animable"></path><path d="M219.71,444.78c.58,10.2,3.65,20.58,8.38,31.07h20.57c4.51-10.39,7.37-20.75,7.88-31.07Z" style="fill: rgb(224, 224, 224); transform-origin: 238.125px 460.315px;" id="el3kpxzxyhkzz" class="animable"></path><path d="M253.21,461.29c0,.1-6.77.19-15.12.19s-15.13-.09-15.13-.19,6.77-.2,15.13-.2S253.21,461.18,253.21,461.29Z" style="fill: rgb(250, 250, 250); transform-origin: 238.085px 461.285px;" id="elfstqi6ef4hp" class="animable"></path><path d="M252.75,465c0,.11-6.35.2-14.18.2s-14.18-.09-14.18-.2,6.35-.19,14.18-.19S252.75,464.88,252.75,465Z" style="fill: rgb(250, 250, 250); transform-origin: 238.57px 465.005px;" id="eldq2f75tjbkv" class="animable"></path><path d="M228.43,451.48a59.1,59.1,0,0,1,0,9.47,56.15,56.15,0,0,1,0-9.47Z" style="fill: rgb(250, 250, 250); transform-origin: 228.425px 456.215px;" id="elyyti8g8n65r" class="animable"></path><path d="M239.44,451.48a60.25,60.25,0,0,1,0,9.81,63.41,63.41,0,0,1,0-9.81Z" style="fill: rgb(250, 250, 250); transform-origin: 239.445px 456.385px;" id="elnzepibzczh" class="animable"></path><path d="M249.79,451.39a66,66,0,0,1,0,10,66,66,0,0,1,0-10Z" style="fill: rgb(250, 250, 250); transform-origin: 249.79px 456.39px;" id="elbh01p5h87a8" class="animable"></path><path d="M255.89,451.48c0,.1-7.94.19-17.74.19s-17.74-.09-17.74-.19,7.94-.2,17.74-.2S255.89,451.37,255.89,451.48Z" style="fill: rgb(250, 250, 250); transform-origin: 238.15px 451.475px;" id="el21iwv6bukqf" class="animable"></path><polygon points="267.38 150.63 290.86 169.45 267.38 187.89 267.38 150.63" style="fill: rgb(235, 235, 235); transform-origin: 279.12px 169.26px;" id="ellb9amjp5jdd" class="animable"></polygon><g id="eltr4temm4i4n"><rect x="228.33" y="135.14" width="16.97" height="68.61" style="fill: rgb(235, 235, 235); transform-origin: 236.815px 169.445px; transform: rotate(90deg);" class="animable" id="el0h8091u03ulb"></rect></g><polygon points="670.21 212.3 686.16 225.07 670.21 237.6 670.21 212.3" style="fill: rgb(235, 235, 235); transform-origin: 678.185px 224.95px;" id="elqxkv9bb0qh" class="animable"></polygon><g id="elmdyh2x3jn4"><rect x="643.69" y="201.77" width="11.52" height="46.6" style="fill: rgb(235, 235, 235); transform-origin: 649.45px 225.07px; transform: rotate(90deg);" class="animable" id="eli66w08luvk"></rect></g></g><g id="freepik--Floor--inject-257" class="animable" style="transform-origin: 370.63px 475.28px;"><path d="M703.54,475.28c0,.14-149.06.25-332.89.25s-332.93-.11-332.93-.25,149-.25,332.93-.25S703.54,475.14,703.54,475.28Z" style="fill: rgb(38, 50, 56); transform-origin: 370.63px 475.28px;" id="elj0x0w74lw7" class="animable"></path></g><g id="freepik--speech-bubble-3--inject-257" class="animable" style="transform-origin: 636.952px 181.258px;"><path d="M620.54,163.53l5.29.69a20.39,20.39,0,1,1-5.28,5h0Z" style="fill: rgb(255, 255, 255); transform-origin: 636.985px 181.288px;" id="elh72sllnypc" class="animable"></path><path d="M620.54,163.53s0,.14,0,.39,0,.63,0,1.1c0,1,0,2.39,0,4.22l-.12-.05h0a.07.07,0,0,1,.1,0,.1.1,0,0,1,0,.09,20.25,20.25,0,0,0-3.66,9,21,21,0,0,0,.11,6.41,20.23,20.23,0,0,0,2.56,6.81,20.76,20.76,0,0,0,5.42,5.92,19.78,19.78,0,0,0,7.92,3.51,20.41,20.41,0,0,0,9.21-.31,19.68,19.68,0,0,0,8.43-4.69,20.94,20.94,0,0,0,3.21-3.78c.41-.71.84-1.41,1.2-2.14l.49-1.11.24-.56.19-.57a20.59,20.59,0,0,0,.92-9.26,19.62,19.62,0,0,0-3.05-8.19,20.58,20.58,0,0,0-5.65-5.8,20.14,20.14,0,0,0-6.69-2.95l-1.68-.31c-.55-.09-1.1-.11-1.63-.17a18.89,18.89,0,0,0-3.11,0,20.4,20.4,0,0,0-9.17,3.15,0,0,0,0,1,0,0l-3.9-.55-1-.15-.36-.06.34,0,1,.12,4,.47h-.05A20.17,20.17,0,0,1,635,160.9a18.15,18.15,0,0,1,3.14-.05c.54.05,1.1.07,1.66.15l1.7.31a20.65,20.65,0,0,1,6.81,3,21,21,0,0,1,5.75,5.86,20,20,0,0,1,3.12,8.33,21.05,21.05,0,0,1-.93,9.43l-.19.58-.24.57c-.17.37-.34.75-.5,1.13-.37.74-.8,1.46-1.23,2.18a20.92,20.92,0,0,1-3.26,3.85,20,20,0,0,1-8.59,4.77,20.82,20.82,0,0,1-9.37.31,20.13,20.13,0,0,1-8-3.6,21.09,21.09,0,0,1-5.49-6,20.63,20.63,0,0,1-2.56-6.92,20.85,20.85,0,0,1-.07-6.49,20.31,20.31,0,0,1,3.76-9.07l.11.11h0a.07.07,0,0,1-.1,0,.08.08,0,0,1,0,0c0-1.84,0-3.28,0-4.26,0-.47,0-.83,0-1.09S620.54,163.53,620.54,163.53Z" style="fill: rgb(38, 50, 56); transform-origin: 636.942px 181.258px;" id="el22s4i0f7i3u" class="animable"></path><polygon points="627.87 182.04 630.41 179.32 635.64 183.66 645.28 173.73 647.82 176.28 635.44 188.75 627.87 182.04" style="fill: #407BFF; transform-origin: 637.845px 181.24px;" id="el8vs6p0lowxu" class="animable"></polygon></g><g id="freepik--speech-bubble-2--inject-257" class="animable animator-hidden" style="transform-origin: 387.54px 103.379px;"><path d="M374.49,124.63l5.5-2.76a20.54,20.54,0,1,0-6.24-3.89h0Z" style="fill: rgb(255, 255, 255); transform-origin: 387.561px 103.433px;" id="eleu1kan60ikb" class="animable"></path><path d="M374.49,124.63l-.06-.41c0-.3-.09-.72-.16-1.25-.15-1.15-.35-2.82-.62-5a.08.08,0,0,1,.08-.1h.06l-.1.15a20.58,20.58,0,0,1-1.36-29.23,20.6,20.6,0,0,1,25.87-3.71,20.45,20.45,0,0,1,7.05,7.06,21,21,0,0,1,2.89,9.08,20.68,20.68,0,0,1-18.21,22A20.33,20.33,0,0,1,380,122H380l-4.14,2-1.05.5a1.93,1.93,0,0,1-.35.16l.37-.2,1.05-.55,4-2.09a.09.09,0,0,1,.07,0A20.38,20.38,0,0,0,406.49,110a20.16,20.16,0,0,0,1.26-8.7,20.74,20.74,0,0,0-2.85-8.89A20.07,20.07,0,0,0,398,85.47a20.34,20.34,0,0,0-24.18,32.45.08.08,0,0,1,0,.12.08.08,0,0,1-.1,0h0l.13-.09c.21,2.14.38,3.79.5,4.93.05.55.09,1,.12,1.28S374.49,124.63,374.49,124.63Z" style="fill: rgb(38, 50, 56); transform-origin: 387.54px 103.379px;" id="el1xygj2s9xvs" class="animable"></path><path d="M381.79,102.8a2.08,2.08,0,1,1-2.08-2.08A2.08,2.08,0,0,1,381.79,102.8Z" style="fill: rgb(38, 50, 56); transform-origin: 379.71px 102.8px;" id="el1r8eifinccgi" class="animable"></path><path d="M390.12,102.8a2.08,2.08,0,1,1-2.08-2.08A2.08,2.08,0,0,1,390.12,102.8Z" style="fill: rgb(38, 50, 56); transform-origin: 388.04px 102.8px;" id="ely2marwe4jxq" class="animable"></path><path d="M398.43,101.76a2.08,2.08,0,1,1-2.84-.76A2.09,2.09,0,0,1,398.43,101.76Z" style="fill: rgb(38, 50, 56); transform-origin: 396.63px 102.803px;" id="el8doi4nxlzvx" class="animable"></path></g><g id="freepik--speech-bubble-1--inject-257" class="animable animator-hidden" style="transform-origin: 93.2469px 212.206px;"><path d="M115,231l-2-6.66a23.14,23.14,0,1,0-5.55,6.18h0Z" style="fill: rgb(255, 255, 255); transform-origin: 93.2881px 212.22px;" id="eludaxqivoso9" class="animable"></path><path d="M115,231h-.47l-1.43-.07-5.66-.29a.1.1,0,0,1-.09-.11.14.14,0,0,1,0-.06h0l.14.15a23.25,23.25,0,0,1-32.79-4.24,23.26,23.26,0,0,1,1-29.51,23.12,23.12,0,0,1,9.24-6.45,23.83,23.83,0,0,1,10.66-1.44,23.32,23.32,0,0,1,9.61,3.19,23.34,23.34,0,0,1,11.34,21.41,23.12,23.12,0,0,1-3.46,10.83v-.08q.93,3.25,1.44,5l.35,1.27a2.9,2.9,0,0,1,.11.42s-.06-.16-.15-.45-.23-.73-.41-1.28c-.35-1.14-.86-2.78-1.52-4.9a.08.08,0,0,1,0-.08A23,23,0,0,0,105,192.48a22.77,22.77,0,0,0-9.44-3.11,23.24,23.24,0,0,0-10.46,1.42,22.56,22.56,0,0,0-9,6.33,22.92,22.92,0,0,0,13.64,37.72,22.6,22.6,0,0,0,7.34,0,23.2,23.2,0,0,0,10.36-4.46.11.11,0,0,1,.15,0,.15.15,0,0,1,0,.13h0l-.08-.16,5.59.41,1.45.11Z" style="fill: rgb(38, 50, 56); transform-origin: 93.2469px 212.206px;" id="elocl86qbp5x8" class="animable"></path><polygon points="86.11 207.59 93.57 198.26 100.89 207.58 86.11 207.59" style="fill: #407BFF; transform-origin: 93.5px 202.925px;" id="el5ouj3hgwykc" class="animable"></polygon><rect x="90.22" y="206.1" width="6.73" height="18.95" style="fill: #407BFF; transform-origin: 93.585px 215.575px;" id="elljqwcqn2ra9" class="animable"></rect></g><g id="freepik--characters-2--inject-257" class="animable" style="transform-origin: 382.79px 252.415px;"><rect x="305.35" y="409.02" width="127.64" height="66.26" style="fill: rgb(224, 224, 224); transform-origin: 369.17px 442.15px;" id="ele682dj1jni" class="animable"></rect><path d="M433,475.28s0-.41,0-1.19,0-1.95,0-3.46c0-3,0-7.49-.05-13.22,0-11.46-.06-28-.1-48.39l.19.19-127.64.06h0l.25-.25c0,23.39,0,45.8,0,66.26l-.23-.23,91.72.11,26.41.07,7.06,0,1.82,0H433l-.6,0h-1.8l-7,0-26.37.06-91.87.12h-.24v-.24c0-20.46,0-42.87,0-66.26v-.25h.26l127.64.06h.19V409c-.05,20.43-.08,37-.1,48.5,0,5.71,0,10.16-.05,13.19,0,1.49,0,2.64,0,3.42S433,475.28,433,475.28Z" style="fill: rgb(38, 50, 56); transform-origin: 369.165px 442.035px;" id="elxuhhazp93rg" class="animable"></path><rect x="495.82" y="387.37" width="141.02" height="87.92" style="fill: rgb(224, 224, 224); transform-origin: 566.33px 431.33px;" id="el80wj8flus3h" class="animable"></rect><path d="M636.84,475.28s0-.54,0-1.59,0-2.6,0-4.62c0-4.05,0-10,0-17.63,0-15.25-.06-37.21-.11-64.07l.2.19-141,.06h0l.25-.25c0,31.17,0,60.88,0,87.91l-.23-.23,101.5.11,29.08.07,7.75,0h2.69l-.66,0h-2l-7.7,0-29,.06-101.65.11h-.23v-.23c0-27,0-56.74,0-87.91v-.25h.26l141,.05h.2v.2c0,26.91-.08,48.91-.11,64.19,0,7.61,0,13.55,0,17.59,0,2,0,3.54,0,4.58S636.84,475.28,636.84,475.28Z" style="fill: rgb(38, 50, 56); transform-origin: 566.46px 431.205px;" id="el0wby80tvn3j" class="animable"></path><polyline points="487.45 136.17 485.73 126 482.57 118.07 499.06 111.11 499.21 115.76 495.16 126.03 498.25 133.82 487.45 136.17" style="fill: rgb(255, 191, 157); transform-origin: 490.89px 123.64px;" id="el1zzk2c7xbsx" class="animable"></polyline><path d="M412.39,182,396.9,195l-31.45-13-.1,3.51,2.7,15.44,28.24,10.06a2.83,2.83,0,0,0,1.51,0,2.65,2.65,0,0,0,.56,0c4-.55,22.57-24.09,22.57-24.09S412.94,182.4,412.39,182Z" style="fill: rgb(69, 90, 100); transform-origin: 393.14px 196.556px;" id="elback1gdpqav" class="animable"></path><path d="M332.88,116a4.54,4.54,0,0,0-3.77-1.41,2.6,2.6,0,0,1-1.66-.08,3.46,3.46,0,0,1-.77-.92,2.29,2.29,0,0,0-3.3-.14,2.62,2.62,0,0,1-.66.63c-1.11.56-2.28-1.51-3.38-.94a2.61,2.61,0,0,1,1.2,1,1.18,1.18,0,0,1-.15,1.45c-1,.88-2.7-1.15-3.85-.43-.62.4-.72,1.44-1.44,1.61a2.4,2.4,0,0,1-.84-.08,1.88,1.88,0,0,0-2,1.59c-.1.81.3,1.81-.32,2.35a1.76,1.76,0,0,1-1.45.18,4.89,4.89,0,0,0,.5,2.16,3,3,0,0,0-1,4,6.26,6.26,0,0,0-1.73,1.71,2.2,2.2,0,0,0-.06,2.33,2,2,0,0,1,.31.46,1,1,0,0,1,0,.6,10.61,10.61,0,0,0-.5,2.27c0,.77.58,1.63,1.35,1.58.18,0,.38-.07.53,0a.49.49,0,0,1,.18.36,5.18,5.18,0,0,1-.13,1.66,2.21,2.21,0,0,0,.22,1.62,1,1,0,0,0,1.44.19c-.24.86-.47,1.72-.7,2.59-.14.51-.26,1.13.11,1.51s1.38.12,1.76-.46.49-1.31.88-1.88a4.14,4.14,0,0,0,.48-.7c.09-.21.12-.46.3-.6.35-.28.88.21.82.66a2.3,2.3,0,0,1-.7,1.13,1.14,1.14,0,0,0-.3,1.24c.11.18.31.31.41.5.36.67-.62,1.29-.74,2a1.83,1.83,0,0,0,.69,1.45c.47.48,1.4.89,1.71.28a5.32,5.32,0,0,0,.16-.69,1.85,1.85,0,0,1,.54-.61,3.52,3.52,0,0,0,1.08-1.72c-.59.7-1.21,1.63-.81,2.45a3.75,3.75,0,0,0,.74.86c.51.54.82,1.25,1.32,1.8a1.75,1.75,0,0,0,2,.58,1.68,1.68,0,0,0,2.79,1.72,1.35,1.35,0,0,1,.46-.4,1.24,1.24,0,0,1,.66,0,3.64,3.64,0,0,0,3.54-1.36l-.67-.24a8.5,8.5,0,0,0,3.79-1.05,2.91,2.91,0,0,0,1.28-3.41c-.24-.53-.71-1.06-.48-1.59a1.36,1.36,0,0,1,.94-.65l4.7-1.58a4.45,4.45,0,0,0,2.07-1.15,1.51,1.51,0,0,0-.08-2.14,4.34,4.34,0,0,1,1.64-1.73c.79-.46,1.7-.65,2.5-1.07a2.44,2.44,0,0,0,1.5-2.09c0-.91-1.28-1.63-1.91-1,.14-1.36,2.57-1.41,2.8-2.76.19-1.09-1.21-1.69-1.92-2.54.15-.38.54-.62.71-1,.34-.79-.47-1.59-1.24-2s-1.7-.77-1.88-1.61.57-1.82.13-2.58a1,1,0,0,0-1.28-.34c-.6-1.58-3.57-.44-4.41-1.9a.6.6,0,0,1-.1-.39.63.63,0,0,1,.16-.3,6.4,6.4,0,0,1,1.31-1,1.33,1.33,0,0,0,.63-1.4c-.19-.52-1.17-.52-1.16,0a1.22,1.22,0,0,0-1.86.44,1.31,1.31,0,0,0-1.63-.18,3.85,3.85,0,0,0-1.18,1.32" style="fill: rgb(38, 50, 56); transform-origin: 327.396px 132.59px;" id="elrs2rk91sykf" class="animable"></path><path d="M325.18,133.22a9.92,9.92,0,0,1,4.19-5.33,5.87,5.87,0,0,1,2.62-1.18,2.46,2.46,0,0,1,2.49,1.12l-.19,1.61c.1,2.57-2,4.64-3,7-.45,1-.84,2.26-1.88,2.66a2.33,2.33,0,0,1-1.72-.08C325.55,138.18,324.61,135.45,325.18,133.22Z" style="fill: #407BFF; transform-origin: 329.748px 132.952px;" id="elbz62svxo7b6" class="animable"></path><path d="M324.49,145.06a5.17,5.17,0,0,1,.81-6.57,3.45,3.45,0,0,1,.58-4.16,10.17,10.17,0,0,1,3.88-2.28,7,7,0,0,1,8.35-4.63c1.94-2.54,5.78-2.75,8.79-1.69a8.17,8.17,0,0,0,2.25.61,12.32,12.32,0,0,0,1.71-.14c3.14-.25,6.11,2.1,7.17,5.07a6,6,0,0,0,.59,1.38A7.76,7.76,0,0,0,360.1,134a5,5,0,0,1,1.7,3.78c0,1.22-.46,2.48,0,3.61.22.56.66,1,.83,1.61.49,1.7-1.44,3.3-1.2,5,.06.36.2.69.28,1a3.07,3.07,0,0,1-.31,2.14,4.32,4.32,0,0,0-.75,1.5,5.13,5.13,0,0,0,.18,1.28c.16,1-2.28,4.89-3.2,5.4L331,158.18a5,5,0,0,1-3.61-4.48,1.84,1.84,0,0,0-.2-1,2.11,2.11,0,0,0-.7-.51c-1.66-1-1.74-3.38-1.46-5.3a2.46,2.46,0,0,0,0-.81A2.85,2.85,0,0,0,324.49,145.06Z" style="fill: rgb(38, 50, 56); transform-origin: 343.188px 142.224px;" id="eldg0s2iuoz" class="animable"></path><path d="M332.07,145.5a14.25,14.25,0,0,1,8.21-12,17.39,17.39,0,0,1,6.89-1.28,10.78,10.78,0,0,1,6.2,1.65c1.45.42,6.55,5.62,6.55,11,0,5.94-.25,13.2-1.23,17.58-2,8.79-8.87,9.49-8.87,9.49s.22,6.2.22,6.2l-19.11-1.41Z" style="fill: rgb(174, 116, 97); transform-origin: 345.425px 155.175px;" id="el58lkx2l57o5" class="animable"></path><path d="M345.49,160.23a1.82,1.82,0,0,1,.66-1.15,1.91,1.91,0,0,1,2.32-.11,2.57,2.57,0,0,1,1,2.42h0a2.32,2.32,0,0,1-1.68,1h-.32a2.11,2.11,0,0,1-1.41-.57A1.88,1.88,0,0,1,345.49,160.23Z" style="fill: rgb(111, 68, 57); transform-origin: 347.486px 160.51px;" id="elwvwpo1h05u" class="animable"></path><path d="M357.53,151.74a1.14,1.14,0,0,1-1.17,1.08,1.09,1.09,0,0,1-1.11-1.1,1.14,1.14,0,0,1,1.17-1.08A1.09,1.09,0,0,1,357.53,151.74Z" style="fill: rgb(38, 50, 56); transform-origin: 356.39px 151.73px;" id="elncv3zxrtajl" class="animable"></path><path d="M357.7,148.12c-.15.14-1-.56-2.2-.63s-2.16.48-2.29.32.1-.33.51-.59a3.17,3.17,0,0,1,1.85-.44,3,3,0,0,1,1.74.68C357.66,147.78,357.77,148.05,357.7,148.12Z" style="fill: rgb(38, 50, 56); transform-origin: 355.447px 147.455px;" id="elu89896e2e3j" class="animable"></path><path d="M349.91,157.34a8.06,8.06,0,0,1,2-.23c.32,0,.62-.06.68-.27a1.57,1.57,0,0,0-.15-.94c-.24-.78-.5-1.59-.77-2.44a41,41,0,0,1-1.68-6.37,41.29,41.29,0,0,1,2.19,6.22c.25.85.5,1.67.73,2.45A1.85,1.85,0,0,1,353,157a.81.81,0,0,1-.55.43,2.08,2.08,0,0,1-.54,0A8.25,8.25,0,0,1,349.91,157.34Z" style="fill: rgb(38, 50, 56); transform-origin: 351.489px 152.272px;" id="el101wzrw4qat" class="animable"></path><path d="M349.82,171.91A22.64,22.64,0,0,1,338.13,168s2.82,6.38,11.77,6.12Z" style="fill: rgb(111, 68, 57); transform-origin: 344.015px 171.064px;" id="elcsaw5962che" class="animable"></path><path d="M346.24,158c.2,0,.12,1.33,1.2,2.35s2.5,1,2.5,1.15-.33.23-.93.21a3.3,3.3,0,0,1-2.1-.88,2.91,2.91,0,0,1-.91-2C346,158.26,346.15,157.94,346.24,158Z" style="fill: rgb(38, 50, 56); transform-origin: 347.97px 159.853px;" id="el6ppc70bb56t" class="animable"></path><path d="M357.5,143.49c-.23.29-1.15,0-2.26,0s-2,.25-2.25,0c-.1-.14,0-.42.44-.7a3.34,3.34,0,0,1,1.82-.51,3.3,3.3,0,0,1,1.81.5C357.46,143.07,357.6,143.35,357.5,143.49Z" style="fill: rgb(38, 50, 56); transform-origin: 355.243px 142.949px;" id="elgq0f6hyhk26" class="animable"></path><path d="M344.29,151.34a1.13,1.13,0,0,0,1.07,1.18,1.09,1.09,0,0,0,1.2-1,1.13,1.13,0,0,0-1.07-1.18A1.07,1.07,0,0,0,344.29,151.34Z" style="fill: rgb(38, 50, 56); transform-origin: 345.425px 151.429px;" id="el5v594jjhkg5" class="animable"></path><path d="M340.89,147.52c.14.16,1-.46,2.25-.43s2.11.68,2.25.53-.07-.34-.46-.63a3.09,3.09,0,0,0-1.79-.61,3.06,3.06,0,0,0-1.8.53C341,147.19,340.82,147.45,340.89,147.52Z" style="fill: rgb(38, 50, 56); transform-origin: 343.154px 147.011px;" id="el69242bsoqfq" class="animable"></path><path d="M340.81,143.39c.23.28,1.19,0,2.33,0s2.1.24,2.33-.05c.1-.13-.05-.42-.46-.69a3.7,3.7,0,0,0-3.75,0C340.84,143,340.7,143.25,340.81,143.39Z" style="fill: rgb(38, 50, 56); transform-origin: 343.137px 142.827px;" id="ellz5hrq4u0r" class="animable"></path><path d="M333,154c0-.66-.62-2.27-1.27-2.41-1.73-.39-4.88-.45-5.19,4-.43,6.06,5.74,5.24,5.76,5.07S332.86,156.3,333,154Z" style="fill: rgb(174, 116, 97); transform-origin: 329.759px 156.108px;" id="elrbd1wbxs1zk" class="animable"></path><path d="M330.78,158.32s-.11.06-.29.13a1,1,0,0,1-.79,0,2.62,2.62,0,0,1-1-2.43,3.43,3.43,0,0,1,.4-1.49,1.23,1.23,0,0,1,.85-.75.54.54,0,0,1,.6.33c.07.18,0,.3.06.31s.13-.09.1-.35a.63.63,0,0,0-.21-.39.8.8,0,0,0-.57-.2,1.49,1.49,0,0,0-1.17.86,3.75,3.75,0,0,0-.49,1.67,2.76,2.76,0,0,0,1.36,2.72,1.12,1.12,0,0,0,1-.09C330.76,158.46,330.8,158.33,330.78,158.32Z" style="fill: rgb(111, 68, 57); transform-origin: 329.518px 156.143px;" id="eldzyz48tgn8u" class="animable"></path><path d="M361.3,145a3.56,3.56,0,0,1-1.73-3.37c-.82.19-1.58-.91-2-1.64s-1-1.13-.9-2a1.05,1.05,0,0,0,0-.5c-.11-.24-.4-.33-.64-.42a4.08,4.08,0,0,1-2.5-3,8.65,8.65,0,0,1-4.19.42,3.29,3.29,0,0,1-5.54-.6,2.91,2.91,0,0,1-2.06,1.33,8.52,8.52,0,0,1-2.52,0,3.48,3.48,0,0,1-2.54,3.79c-.22.05-.47.1-.58.3s0,.45.05.68a2.73,2.73,0,0,1-2.05,3.36,2.05,2.05,0,0,1-.39,3.19c-.23.12-.53.26-.51.52a.56.56,0,0,0,.12.26,4,4,0,0,1,.83,2.07,1.48,1.48,0,0,1-1.31,1.54,2,2,0,0,1,.69,1.38c0,.52-.59,1-1.07.8a32.84,32.84,0,0,1-3.31-1.06c-1.56-2.44.76-4.87,1.11-7.75a18.87,18.87,0,0,1,3.14-8,13.82,13.82,0,0,1,2.33-2.78,18.2,18.2,0,0,1,3.49-2.24,16.46,16.46,0,0,1,5-2c3.31-.56,6.64.84,9.6,2.44a14.22,14.22,0,0,1,3.16,2.15,12.94,12.94,0,0,1,2.55,3.8,16.14,16.14,0,0,1,1.8,6.34" style="fill: rgb(38, 50, 56); transform-origin: 344.973px 141.155px;" id="el3yfqyb2e6w5" class="animable"></path><path d="M362.62,143a2.15,2.15,0,0,0-.29-.67c-.11-.21-.28-.45-.43-.76a2.87,2.87,0,0,1-.27-1.16,9,9,0,0,1,.12-1.49,6.72,6.72,0,0,0,.06-1.81,5,5,0,0,0-.67-1.95,4.61,4.61,0,0,0-.7-.91,7.55,7.55,0,0,0-.91-.77,3.9,3.9,0,0,1-.87-.85,5,5,0,0,1-.5-1.18A8.2,8.2,0,0,0,354.6,127a7.09,7.09,0,0,0-1.43-.64,6,6,0,0,0-1.58-.28,7.48,7.48,0,0,0-.82,0l-.82.1a4,4,0,0,1-1.61-.1c-.54-.14-1.06-.37-1.61-.54a9.8,9.8,0,0,0-1.7-.41,10.47,10.47,0,0,0-1.77-.13,9.13,9.13,0,0,0-1.8.22,6,6,0,0,0-3.18,1.82l-.24.29.1,0a6.78,6.78,0,0,0-5.28.74,6.66,6.66,0,0,0-3.18,4l.05-.06a22,22,0,0,0-2.2,1,6.66,6.66,0,0,0-1.83,1.45,4.1,4.1,0,0,0-.91,2,2.85,2.85,0,0,0,.45,2.08v-.1a5,5,0,0,0-1.59,3,5.19,5.19,0,0,0,.45,3,6.27,6.27,0,0,0,.36.62c.14.2.28.38.39.57a1.35,1.35,0,0,1,.18.61,4.2,4.2,0,0,1-.06.62,10.8,10.8,0,0,0-.08,2.31,4.84,4.84,0,0,0,.49,1.79,3,3,0,0,0,.88,1c.3.22.57.32.72.44a.92.92,0,0,1,.21.2.62.62,0,0,0-.19-.22c-.15-.13-.42-.23-.71-.46a3,3,0,0,1-.85-1,4.63,4.63,0,0,1-.46-1.76,10,10,0,0,1,.1-2.28c0-.21.06-.42.06-.65a1.61,1.61,0,0,0-.19-.66c-.11-.2-.26-.39-.39-.58a4,4,0,0,1-.35-.61,5,5,0,0,1-.42-3,4.86,4.86,0,0,1,1.55-2.93l0-.05,0-.05a2.77,2.77,0,0,1-.42-2,4.12,4.12,0,0,1,.89-2,6.36,6.36,0,0,1,1.79-1.4,20.38,20.38,0,0,1,2.17-1l0,0v0a6.88,6.88,0,0,1,8.25-4.57l.05,0,.05,0,.23-.28a5.82,5.82,0,0,1,3.08-1.76,8.74,8.74,0,0,1,1.76-.22,11.14,11.14,0,0,1,1.74.12,10.19,10.19,0,0,1,1.67.41c.54.17,1.07.4,1.62.54a4.91,4.91,0,0,0,.84.14,5.77,5.77,0,0,0,.84,0l.82-.1a6.94,6.94,0,0,1,.79,0,6,6,0,0,1,2.93.89,7.93,7.93,0,0,1,3.51,4.29,5.16,5.16,0,0,0,.53,1.2,3.75,3.75,0,0,0,.9.88,7.63,7.63,0,0,1,.91.76,5.18,5.18,0,0,1,.68.88,4.92,4.92,0,0,1,.67,1.91,6.45,6.45,0,0,1,0,1.77,9.21,9.21,0,0,0-.1,1.52,2.76,2.76,0,0,0,.29,1.17c.16.31.33.56.45.76a2.49,2.49,0,0,1,.25.48C362.6,142.9,362.62,143,362.62,143Z" style="fill: rgb(69, 90, 100); transform-origin: 343.107px 138.8px;" id="elz39t2dilqum" class="animable"></path><path d="M341,126.27s.16-.09.47-.21a3.89,3.89,0,0,1,1.34-.31,3.94,3.94,0,0,1,2,.41,4,4,0,0,1,1.71,1.76,4,4,0,0,1,.26.7.77.77,0,0,1-.09.64l-.16.19.25,0a2.48,2.48,0,0,1,1.86.34,2.4,2.4,0,0,1,1,1.18,2.73,2.73,0,0,1,.18,1,2.06,2.06,0,0,0,0,.37l0-.09a1.3,1.3,0,0,0,.05-.28,2.58,2.58,0,0,0-.13-1.06,2.52,2.52,0,0,0-1-1.27,2.62,2.62,0,0,0-2-.38l.09.14a.89.89,0,0,0,.12-.79,2.86,2.86,0,0,0-.27-.74,4,4,0,0,0-1.8-1.83,3.9,3.9,0,0,0-2.06-.39,4,4,0,0,0-1.36.37l-.34.19C341.07,126.23,341,126.26,341,126.27Z" style="fill: rgb(69, 90, 100); transform-origin: 345.44px 128.988px;" id="elv7gempwfv6" class="animable"></path><path d="M330.78,132.62s.06.09.2.23a4,4,0,0,0,.66.52,2.88,2.88,0,0,0,1.18.43,2.12,2.12,0,0,0,1.53-.36l-.13,0,.16.26a2.43,2.43,0,0,0,.2.25,3.66,3.66,0,0,0,1.45,1,4,4,0,0,0,1.44.27,3.44,3.44,0,0,0,1-.16,1.25,1.25,0,0,0,.33-.15,5.55,5.55,0,0,1-1.29.18,3.91,3.91,0,0,1-1.37-.3,3.61,3.61,0,0,1-1.38-1l-.19-.24-.15-.25-.05-.08-.08,0a2,2,0,0,1-1.41.35,2.79,2.79,0,0,1-1.14-.38C331.1,132.91,330.8,132.59,330.78,132.62Z" style="fill: rgb(69, 90, 100); transform-origin: 334.79px 133.919px;" id="eljwre8qi9slp" class="animable"></path><path d="M327.23,138a1.09,1.09,0,0,0,0,.12,1.4,1.4,0,0,0,.12.3,1.66,1.66,0,0,0,.94.71,3.09,3.09,0,0,0,1.74-.09,9.27,9.27,0,0,0,1-.32,1.6,1.6,0,0,0,.88-.71L332,138l-.15,0a7,7,0,0,0,1.73,1.19,3.11,3.11,0,0,0,1.69.28,2.23,2.23,0,0,0,1.08-.41,1.26,1.26,0,0,0,.23-.21l.07-.09s-.12.1-.34.24a2.35,2.35,0,0,1-1.05.34,3.06,3.06,0,0,1-1.61-.3,7.3,7.3,0,0,1-1.68-1.17l-.09-.09-.05.12,0,.08a1.5,1.5,0,0,1-.79.63,9.82,9.82,0,0,1-1,.32,3,3,0,0,1-1.66.12,1.6,1.6,0,0,1-.91-.62A2.69,2.69,0,0,1,327.23,138Z" style="fill: rgb(69, 90, 100); transform-origin: 331.939px 138.635px;" id="elrysjz4qc82" class="animable"></path><path d="M322.07,116s.11,0,.29.07a1.38,1.38,0,0,1,.65.47,1.92,1.92,0,0,1,.38,1.19,5.25,5.25,0,0,1-.33,1.64l0,.09h.11a3.42,3.42,0,0,1,2.05.77,2.68,2.68,0,0,1,1,2.19,2.45,2.45,0,0,1-1,2l-.21.15h.26a3.14,3.14,0,0,1,2.24,1.16,3,3,0,0,1,.66,1.9,3.37,3.37,0,0,1-.29,1.33c-.13.29-.24.43-.23.44s0,0,.09-.1a1.74,1.74,0,0,0,.19-.31,3.17,3.17,0,0,0,.35-1.36,3.07,3.07,0,0,0-.66-2,3.27,3.27,0,0,0-2.34-1.23l0,.16a2.63,2.63,0,0,0,1.09-2.1,2.72,2.72,0,0,0-.28-1.33,3,3,0,0,0-.81-1,3.62,3.62,0,0,0-2.16-.79l.07.1a5.61,5.61,0,0,0,.31-1.68,2,2,0,0,0-.44-1.24,1.4,1.4,0,0,0-.71-.47l-.22,0S322.07,116,322.07,116Z" style="fill: rgb(69, 90, 100); transform-origin: 325.176px 122.702px;" id="elc8w6w13n0l5" class="animable"></path><path d="M310.45,128.47l.1.07.29.15a4.19,4.19,0,0,0,1.21.36,4.76,4.76,0,0,0,1.91-.12,4.54,4.54,0,0,0,2.13-1.21l-.14,0a3.84,3.84,0,0,0,2.61,2,2.92,2.92,0,0,0,3.12-1.42h-.16a2.51,2.51,0,0,0,.67,1.07,3.15,3.15,0,0,0,1,.62,4.45,4.45,0,0,0,1.83.31,8.66,8.66,0,0,0,1.2-.12,1.78,1.78,0,0,0,.43-.09,3.13,3.13,0,0,0-.43,0c-.28,0-.69.07-1.2.07a4.49,4.49,0,0,1-1.77-.34,2.62,2.62,0,0,1-1.52-1.61l-.06-.21-.1.19a2.76,2.76,0,0,1-2.93,1.32,3.72,3.72,0,0,1-2.5-1.94l-.05-.1-.08.08a4.61,4.61,0,0,1-2,1.2,5,5,0,0,1-1.87.14A5.75,5.75,0,0,1,310.45,128.47Z" style="fill: rgb(69, 90, 100); transform-origin: 318.55px 128.887px;" id="elilgre6mpdkf" class="animable"></path><path d="M316.26,137.73a.32.32,0,0,0,.07.11.6.6,0,0,0,.33.18,2.75,2.75,0,0,0,1.35-.15,3.26,3.26,0,0,0,1.62-1.19,3.36,3.36,0,0,0,.6-2.38v0l-.14.09a4,4,0,0,0,2.41.49,4.54,4.54,0,0,0,1.89-.68,4.83,4.83,0,0,0,1-.88,1.71,1.71,0,0,0,.3-.4,7.44,7.44,0,0,1-1.39,1.17,4.54,4.54,0,0,1-1.84.62,3.85,3.85,0,0,1-2.3-.48l-.16-.09,0,.19h0a3.29,3.29,0,0,1-.56,2.27,3.21,3.21,0,0,1-1.52,1.16,3.11,3.11,0,0,1-1.3.2A.72.72,0,0,1,316.26,137.73Z" style="fill: rgb(69, 90, 100); transform-origin: 320.975px 135.483px;" id="elem2iwv3m7vl" class="animable"></path><path d="M335.3,117a5,5,0,0,1,.16,1.88,4.27,4.27,0,0,1-.7,1.89,4.19,4.19,0,0,1-1.95,1.5,4.11,4.11,0,0,1-1.4.28h-.12l0,.11a5.33,5.33,0,0,1,.1,2,5.2,5.2,0,0,1-.44,1.51,3.24,3.24,0,0,1-.28.53.49.49,0,0,1-.34.23.31.31,0,0,1-.23-.09s-.05-.09-.06-.08a.14.14,0,0,0,0,.1.38.38,0,0,0,.27.13.51.51,0,0,0,.4-.24,4.11,4.11,0,0,0,.32-.53,5.18,5.18,0,0,0,.48-1.54,5.09,5.09,0,0,0-.08-2l-.08.11a4.07,4.07,0,0,0,1.47-.28,4.15,4.15,0,0,0,2.71-3.55,3.81,3.81,0,0,0-.11-1.4,2,2,0,0,0-.12-.37Q335.31,117,335.3,117Z" style="fill: rgb(69, 90, 100); transform-origin: 332.791px 121.995px;" id="el1lqpzgyk6e7" class="animable"></path><path d="M350.55,176.36l4.57,3.73L365.45,182s5.7,28.29,9.72,37.55,8.44,27.65,8.44,27.65l-6,4.57Z" style="fill: rgb(69, 90, 100); transform-origin: 367.08px 214.065px;" id="el5cnfv0xgrai" class="animable"></path><path d="M365.09,187.21a27.59,27.59,0,0,1,2.55,4.5,27,27,0,0,1,2.11,4.72,26.66,26.66,0,0,1-2.56-4.5A26.44,26.44,0,0,1,365.09,187.21Z" style="fill: rgb(38, 50, 56); transform-origin: 367.42px 191.82px;" id="el4j5ianc1o7x" class="animable"></path><path d="M380.47,237.84c.09.75,11,30.59,8.41,32.3s-16.49,2.84-16.34,2.41-4-27.21-3.29-27.81,9.85-6.9,10.53-6.9" style="fill: rgb(69, 90, 100); transform-origin: 379.223px 255.241px;" id="eldsp4ikdl54u" class="animable"></path><g id="eld9jmgonu3u5"><path d="M382.49,271.77l-3.27-6.94-.88-7.78s2.09-4.87,2.07-7.36-2.07-7.52-2.07-7.52l-7.71,2.41s1.24,16.22,1.24,16.5,2,9.37,2,9.37l4.5,2.19Z" style="opacity: 0.3; transform-origin: 376.56px 257.405px;" class="animable" id="elfh3wxch9qe7"></path></g><path d="M329.78,257.44S325,272,325.32,282.57s4.74,49.7,4.74,49.7-6.06,30.58-8.47,41.89c-2.74,12.88-4.38,19.78-4.38,19.78l19.73,3.11s15.49-46.23,18.57-59.63,3.17-41.23,3.17-42.35-.41-29.26-.41-29.26Z" style="fill: rgb(38, 50, 56); transform-origin: 337.945px 327.245px;" id="el5totbplm34" class="animable"></path><path d="M340.23,380.27l-5.29,16-.05,1.89s19.27,7,19.5,10.58l-37.18.19-.09-9.34,4.54-19.31Z" style="fill: rgb(38, 50, 56); transform-origin: 335.755px 394.6px;" id="el2gfgc7z8dga" class="animable"></path><path d="M323.38,396.64a1.51,1.51,0,0,0-1,1.73,1.45,1.45,0,0,0,1.71,1.05,1.6,1.6,0,0,0,1.1-1.85,1.53,1.53,0,0,0-1.91-.89" style="fill: rgb(224, 224, 224); transform-origin: 323.786px 398.027px;" id="elvoccub49d2p" class="animable"></path><path d="M317.21,409l.09-3,35.62.94s1.66.71,1.47,1.88Z" style="fill: rgb(69, 90, 100); transform-origin: 335.808px 407.5px;" id="eltfc0on5gui" class="animable"></path><path d="M335.49,398c0,.19-.91.27-1.8.86s-1.37,1.36-1.53,1.28.09-1.12,1.18-1.81S335.53,397.83,335.49,398Z" style="fill: rgb(255, 255, 255); transform-origin: 333.804px 398.993px;" id="elvezadfc6mr" class="animable"></path><path d="M339.4,399.59c0,.17-.75.49-1.36,1.26s-.79,1.58-1,1.57-.3-1,.48-2S339.39,399.41,339.4,399.59Z" style="fill: rgb(255, 255, 255); transform-origin: 338.147px 400.96px;" id="eldtjrrlecad" class="animable"></path><path d="M341.64,404.24c-.17,0-.43-.86,0-1.86s1.31-1.4,1.39-1.25-.44.69-.81,1.51S341.82,404.22,341.64,404.24Z" style="fill: rgb(255, 255, 255); transform-origin: 342.222px 402.67px;" id="el5oawjviyo4m" class="animable"></path><path d="M400.1,380.33l-5.28,16-.06,1.89s19.27,7,19.51,10.58l-37.19.19-.09-9.34,4.54-19.31Z" style="fill: rgb(38, 50, 56); transform-origin: 395.63px 394.66px;" id="elu0m4otxut7j" class="animable"></path><path d="M383.25,396.7a1.51,1.51,0,0,0-1,1.73,1.45,1.45,0,0,0,1.71,1.05,1.6,1.6,0,0,0,1.1-1.85,1.53,1.53,0,0,0-1.91-.89" style="fill: rgb(224, 224, 224); transform-origin: 383.656px 398.087px;" id="elhx247aheb4j" class="animable"></path><path d="M377.08,409l.09-3,35.62.94s1.66.71,1.48,1.88Z" style="fill: rgb(69, 90, 100); transform-origin: 395.682px 407.5px;" id="el32ydqhzrdw9" class="animable"></path><path d="M395.36,398.05c0,.19-.91.27-1.8.86s-1.37,1.36-1.53,1.28.09-1.12,1.18-1.81S395.4,397.89,395.36,398.05Z" style="fill: rgb(255, 255, 255); transform-origin: 393.674px 399.045px;" id="elwvv0sbtt12" class="animable"></path><path d="M399.27,399.65c0,.17-.74.49-1.36,1.26s-.78,1.58-1,1.57-.3-1,.48-2S399.26,399.47,399.27,399.65Z" style="fill: rgb(255, 255, 255); transform-origin: 398.015px 401.02px;" id="elt81v1yjxz08" class="animable"></path><path d="M401.51,404.3c-.17,0-.43-.86,0-1.86s1.3-1.4,1.38-1.25-.44.69-.81,1.51S401.69,404.29,401.51,404.3Z" style="fill: rgb(255, 255, 255); transform-origin: 402.087px 402.73px;" id="elg14junohurr" class="animable"></path><path d="M374.66,253.94l1.4,13.45s37.94,53.79,38.7,59.85S398,394.61,398,394.61l-20.19-3.84,10.64-58.6L355.3,292.34V255.25Z" style="fill: rgb(38, 50, 56); transform-origin: 385.042px 324.275px;" id="elviu9iv45nq" class="animable"></path><path d="M357.45,323.65a1.76,1.76,0,0,1,0-.52c0-.41,0-.9,0-1.51,0-1.38.1-3.26.17-5.55.2-4.74.47-11.17.77-18.28l0-.81v0a37,37,0,0,1,1.29-9.75c.73-2.92,1.55-5.5,2.24-7.65s1.22-3.83,1.63-5.1a18.19,18.19,0,0,1,.61-1.86,1.67,1.67,0,0,1-.08.5c-.07.33-.18.81-.34,1.42-.32,1.22-.84,3-1.49,5.14s-1.43,4.75-2.13,7.66a38.24,38.24,0,0,0-1.23,9.62h0l0,.81c-.35,7.11-.68,13.54-.91,18.28-.14,2.28-.25,4.16-.34,5.54-.05.6-.08,1.1-.11,1.5A2.22,2.22,0,0,1,357.45,323.65Z" style="fill: rgb(69, 90, 100); transform-origin: 360.795px 298.135px;" id="elyn1pbml4s1j" class="animable"></path><path d="M367,200.94c-3.59-8.41-17.12-26-17.12-26l.14,3.14-19.11-8.7-3.49,9.45,28,61.13,1.29,15.29H374.8c1-.19,2.5-4.78,2.25-5.76-1.11-4.29-5.73-16-8-27.23C367.35,213.55,372.15,213,367,200.94Z" style="fill: rgb(235, 235, 235); transform-origin: 352.249px 212.315px;" id="elnmomm8uaphc" class="animable"></path><path d="M370.63,254.56a4.65,4.65,0,0,1-.13-.79c-.07-.57-.16-1.32-.27-2.27-.22-2-.54-4.86-.92-8.35s-.81-7.74-1.3-12.39c-.23-2.33-.48-4.78-.74-7.32a69.84,69.84,0,0,0-1.47-7.73c-2.54-10.53-7.33-19.2-10.72-25.4-1.71-3.1-3.06-5.65-3.84-7.48-.19-.45-.37-.85-.52-1.21l-.31-.92a4.25,4.25,0,0,1-.23-.76,4.53,4.53,0,0,1,.32.72l.36.9.55,1.19c.84,1.8,2.23,4.3,4,7.39,3.47,6.15,8.34,14.84,10.9,25.45a68.48,68.48,0,0,1,1.46,7.79l.72,7.32c.45,4.66.85,8.86,1.19,12.41s.58,6.34.76,8.37q.12,1.43.18,2.28A4,4,0,0,1,370.63,254.56Z" style="fill: rgb(38, 50, 56); transform-origin: 360.413px 217.25px;" id="elh5so2u7fpln" class="animable"></path><path d="M319.7,180.54l8.12-5.12,1.52-4.08s15.88,12.11,20.11,19.54c5,8.81,13.56,34.6,13.56,34.6s2.42,47,1.51,52.06-47.53.29-47.68-.17,12.55-43,12.55-43Z" style="fill: rgb(69, 90, 100); transform-origin: 340.782px 225.594px;" id="elhljutf024ue" class="animable"></path><path d="M355.6,214.26s-.15-.11-.38-.34-.58-.58-1-1c-.85-.93-2-2.3-3.41-4.09a69.55,69.55,0,0,1-4.42-6.55c-.75-1.29-1.51-2.66-2.24-4.1-.37-.72-.72-1.47-1.07-2.23a7.36,7.36,0,0,1-.76-2.5,3,3,0,0,1,.38-1.78l.27.38a3.52,3.52,0,0,1-2.47-.5,7.77,7.77,0,0,1-1.79-1.57c-1-1.17-1.82-2.36-2.67-3.47-1.65-2.2-3.13-4.19-4.39-5.88l-2.9-4-.77-1.09c-.17-.25-.26-.39-.24-.4a2.12,2.12,0,0,1,.32.34c.22.28.5.62.84,1l3,3.87,4.48,5.82c.85,1.09,1.7,2.3,2.67,3.42a7.33,7.33,0,0,0,1.68,1.46,3,3,0,0,0,2.12.43l.55-.1-.29.48a2.45,2.45,0,0,0-.31,1.49,7.3,7.3,0,0,0,.71,2.33c.35.75.7,1.49,1.06,2.21.72,1.44,1.46,2.8,2.2,4.08a76.43,76.43,0,0,0,4.31,6.58c1.32,1.81,2.47,3.21,3.27,4.17A18.2,18.2,0,0,1,355.6,214.26Z" style="fill: rgb(38, 50, 56); transform-origin: 341.669px 194.7px;" id="elkffiin39lb8" class="animable"></path><path d="M357,185.43a5.19,5.19,0,0,1-.39,1.24l-.06.15-.12-.12a70.78,70.78,0,0,1-6.33-6.84l.44-.13c-.08.73-.17,1.48-.26,2.24-.25,2.05-.48,4-.69,5.7l-.05.35-.3-.19c-1.77-1.14-3.26-2.12-4.3-2.82a11,11,0,0,1-1.59-1.16,10,10,0,0,1,1.74.93c1.07.64,2.59,1.56,4.39,2.67l-.34.17c.19-1.72.41-3.66.64-5.71.09-.76.18-1.51.27-2.23l.07-.59.37.46c2.59,3.21,4.94,5.73,6.09,7l-.17,0A6.34,6.34,0,0,1,357,185.43Z" style="fill: rgb(38, 50, 56); transform-origin: 350.175px 183.555px;" id="elc6ksmkzcats" class="animable"></path><g id="elo1hczgsevwn"><polygon points="324.66 250.27 364.02 247.64 363.86 243.69 326.06 245.53 324.66 250.27" style="opacity: 0.3; transform-origin: 344.34px 246.98px;" class="animable" id="elo9qk7xfda2n"></polygon></g><g id="el4e227py4vp3"><polygon points="331.23 202.24 337.31 215.36 332.13 215.33 331.23 202.24" style="opacity: 0.3; transform-origin: 334.27px 208.8px;" class="animable" id="elicmlb44prj"></polygon></g><polygon points="664.88 45.9 469.05 90.72 357.53 209.92 189.19 212 55.93 317.59 74.12 341.9 195.63 241.02 376.73 239.16 487.97 116.85 683.8 72.04 664.88 45.9" style="fill: #407BFF; transform-origin: 369.865px 193.9px;" id="elief046vdism" class="animable"></polygon><polygon points="668.01 98.5 709.65 50.04 650.58 29.42 668.01 98.5" style="fill: #407BFF; transform-origin: 680.115px 63.96px;" id="eloqdqc20i5sg" class="animable"></polygon><path d="M628,93.55,622.5,86,627,85s1-8.41,2.77-9.83,2.74-.21,2.49,1.62-1,2.17-1,4a14.69,14.69,0,0,0,.16,3,17.32,17.32,0,0,1,3.9,8.1l-.16,2.32Z" style="fill: rgb(255, 191, 157); transform-origin: 628.91px 84.3788px;" id="el2mr1y804kpa" class="animable"></path><path d="M639.56,82.14l-2.29,3.79a15.19,15.19,0,0,1-.09,8.55c-.62,1.73,2.07,11,2.07,11l-12.17-.82.62-11.51,3-9.24Z" style="fill: rgb(255, 191, 157); transform-origin: 633.32px 93.81px;" id="elmrg1115llma" class="animable"></path><path d="M431.86,183.65s2-2,1.67-3.4-6.67-5-7.57-4.34a1.3,1.3,0,0,0-.64,1.41s-3.15-2.14-3.25.89a1.17,1.17,0,0,0-.89,1.86,18.68,18.68,0,0,0,3.25,3.87s-2-.51-1.74,2l.21.55-2,2.92a3.72,3.72,0,0,0,3.91,1.14c2.29-.82,2.06-2.06,2.06-2.06a3.72,3.72,0,0,0,2.46-1.82S431.86,186.71,431.86,183.65Z" style="fill: rgb(174, 116, 97); transform-origin: 427.233px 183.271px;" id="el41d9858fvg1" class="animable"></path><path d="M488.3,123.55a11.75,11.75,0,0,1,3.16-11.07,10.87,10.87,0,0,1-2.18-6.45,3.21,3.21,0,0,1,.28-1.5,1.34,1.34,0,0,1,1.25-.74,1.56,1.56,0,0,1,1.14,1.44c.08.65,0,1.32.06,2,.27,1.61,1.83,2.62,3.17,3.54s2.75,2.29,2.48,3.9l-2,8.44Z" style="fill: rgb(255, 191, 157); transform-origin: 492.837px 113.67px;" id="elngqy7q8xqf" class="animable"></path><path d="M384.35,230.38s-8.79-3.09-9.88-3.36-12.29,3.23-12.29,3.23l1.44,11.13,2.41-1s6.86,5.86,9.27,5.55a2.9,2.9,0,0,0,2.6-2.54s3.07-.23,2-2.94a3,3,0,0,0,.88-3.29s2.59-.75,1.79-2.51a9.84,9.84,0,0,0-1.65-2.64S384.19,232.92,384.35,230.38Z" style="fill: rgb(174, 116, 97); transform-origin: 373.265px 236.474px;" id="el0o20pnc9xfeb" class="animable"></path><path d="M319.88,180.43S311,185.84,311,195.62c0,8.58,2.2,35.49,4.72,42.87s7.65,7.2,18.05,6.95c10.65-.25,31.68-1.87,31.68-1.87L364,227.75l-30.93-.29-2.17-27.07" style="fill: rgb(69, 90, 100); transform-origin: 338.225px 212.977px;" id="el7azeq3273ri" class="animable"></path><path d="M330.93,200.39s0,.16.06.47.08.8.14,1.4c.11,1.24.27,3.05.48,5.36.39,4.69,1,11.45,1.67,19.83l-.17-.16,30.92.22h.21l0,.21c.45,5,.92,10.34,1.4,15.82l0,.25h-.24c-6.48.5-13.26,1-20.22,1.37-6.5.35-12.84.7-19,.53a20,20,0,0,1-4.56-.66,8.3,8.3,0,0,1-3.89-2.35,11.21,11.21,0,0,1-2.2-3.86,33.66,33.66,0,0,1-1.08-4.17c-1.07-5.56-1.65-10.89-2.18-15.88s-.87-9.65-1.13-13.9c-.13-2.13-.24-4.16-.29-6.08a30.4,30.4,0,0,1,.12-5.44,17.31,17.31,0,0,1,3.43-7.94,22.28,22.28,0,0,1,3.86-3.92c.49-.39.89-.66,1.16-.84a4.32,4.32,0,0,1,.42-.24l-.39.29c-.26.19-.64.47-1.13.87a23.63,23.63,0,0,0-3.76,3.95,17.16,17.16,0,0,0-3.31,7.87,30.84,30.84,0,0,0-.09,5.39c.08,1.91.2,3.94.33,6.06.29,4.25.68,8.91,1.2,13.89s1.14,10.31,2.21,15.83c.14.68.31,1.37.47,2.06s.37,1.37.61,2a10.59,10.59,0,0,0,2.1,3.69,7.77,7.77,0,0,0,3.68,2.21,19.11,19.11,0,0,0,4.44.64c6.11.16,12.47-.19,19-.54,6.95-.4,13.73-.87,20.2-1.35l-.23.26c-.47-5.48-.93-10.78-1.37-15.82l.23.21-30.93-.34h-.16v-.16c-.64-8.39-1.16-15.15-1.52-19.84-.16-2.32-.29-4.13-.38-5.38,0-.59-.07-1.06-.09-1.39A4.32,4.32,0,0,1,330.93,200.39Z" style="fill: rgb(38, 50, 56); transform-origin: 338.21px 213.072px;" id="elysk2ndh08z" class="animable"></path><path d="M328.88,191.61a28.52,28.52,0,0,0-3-4.71,27.75,27.75,0,0,0-4.24-3.63,12.26,12.26,0,0,1,7.25,8.34Z" style="fill: rgb(38, 50, 56); transform-origin: 325.265px 187.44px;" id="el5p9wua8n6ha" class="animable"></path><path d="M328.74,232.92a7.33,7.33,0,0,1,4.54-5.71,30.94,30.94,0,0,0-2.64,2.56A30.07,30.07,0,0,0,328.74,232.92Z" style="fill: rgb(38, 50, 56); transform-origin: 331.01px 230.065px;" id="elyjx5b2c6qdl" class="animable"></path><path d="M614.75,358.67l-5.29,16-.06,1.88s19.28,7,19.51,10.58l-37.18.2-.1-9.35,4.55-19.3Z" style="fill: rgb(38, 50, 56); transform-origin: 610.27px 373px;" id="elscme36d9vx" class="animable"></path><path d="M597.9,375a1.52,1.52,0,0,0-1,1.74,1.46,1.46,0,0,0,1.71,1,1.58,1.58,0,0,0,1.09-1.84,1.51,1.51,0,0,0-1.9-.89" style="fill: rgb(224, 224, 224); transform-origin: 598.302px 376.351px;" id="el7qtvzds4oxa" class="animable"></path><path d="M591.73,387.37l.09-3,35.61.95s1.66.71,1.48,1.87Z" style="fill: rgb(69, 90, 100); transform-origin: 610.327px 385.87px;" id="elxqkcz87x8d8" class="animable"></path><path d="M610,376.4c0,.18-.92.27-1.81.86s-1.36,1.35-1.53,1.28.1-1.12,1.19-1.82S610,376.23,610,376.4Z" style="fill: rgb(255, 255, 255); transform-origin: 608.307px 377.388px;" id="elm4mjwm37mvs" class="animable"></path><path d="M613.91,378c.05.18-.74.49-1.35,1.26s-.79,1.59-1,1.58-.3-1,.48-2S613.91,377.82,613.91,378Z" style="fill: rgb(255, 255, 255); transform-origin: 612.663px 379.376px;" id="el57vlp0kmqrk" class="animable"></path><path d="M616.15,382.65c-.16,0-.42-.87,0-1.86s1.31-1.4,1.39-1.25-.45.68-.81,1.51S616.33,382.63,616.15,382.65Z" style="fill: rgb(255, 255, 255); transform-origin: 616.735px 381.08px;" id="elsadm2wtatpi" class="animable"></path><path d="M534.86,361.63l-6.47,13.08,0,1.88s19.27,7,19.5,10.58l-37.18.2-.09-9.35,8.08-19.35Z" style="fill: rgb(38, 50, 56); transform-origin: 529.255px 373.02px;" id="eld9c59z3gzz7" class="animable"></path><path d="M516.83,375a1.52,1.52,0,0,0-1,1.74,1.46,1.46,0,0,0,1.71,1,1.59,1.59,0,0,0,1.1-1.84,1.52,1.52,0,0,0-1.91-.89" style="fill: rgb(224, 224, 224); transform-origin: 517.236px 376.351px;" id="elh3hb93d1pwt" class="animable"></path><path d="M510.66,387.37l.09-3,35.62.95s1.66.71,1.47,1.87Z" style="fill: rgb(69, 90, 100); transform-origin: 529.258px 385.87px;" id="eljcvm6l6qjv" class="animable"></path><path d="M528.94,376.4c0,.18-.91.27-1.8.86s-1.37,1.35-1.53,1.28.09-1.12,1.18-1.82S529,376.23,528.94,376.4Z" style="fill: rgb(255, 255, 255); transform-origin: 527.254px 377.388px;" id="elrwxxlg8fze" class="animable"></path><path d="M532.85,378c0,.18-.75.49-1.36,1.26s-.79,1.59-1,1.58-.3-1,.48-2S532.84,377.82,532.85,378Z" style="fill: rgb(255, 255, 255); transform-origin: 531.597px 379.376px;" id="elduulf2mqw2o" class="animable"></path><path d="M535.09,382.65c-.17,0-.43-.87,0-1.86s1.31-1.4,1.39-1.25-.45.68-.81,1.51S535.27,382.63,535.09,382.65Z" style="fill: rgb(255, 255, 255); transform-origin: 535.672px 381.08px;" id="elatmniid9q1h" class="animable"></path><path d="M574.31,231.89l-34.24-4.14-1.34,5a52.57,52.57,0,0,0-3.28,15.21C534.08,270.59,534,306,534,306l-24.49,65.59,22.65,4.12,30.95-68.14,8.12-47.23Z" style="fill: rgb(38, 50, 56); transform-origin: 541.91px 301.73px;" id="elm042e5fzfi" class="animable"></path><path d="M594.76,230.4c0,.28.13,5.11.13,5.11,10.23,14,35.92,55.78,37.43,62.69,1.87,8.59-18.4,75.85-18.4,75.85l-23.6-3.3,16.79-63.55-36.43-44.58L572.3,232Z" style="fill: rgb(38, 50, 56); transform-origin: 601.561px 302.225px;" id="el7t3821ymm9r" class="animable"></path><polygon points="539.78 232.4 547.87 233.89 548.63 229.7 540.7 228.52 539.78 232.4" style="fill: rgb(69, 90, 100); transform-origin: 544.205px 231.205px;" id="el8c355qc31fk" class="animable"></polygon><polygon points="549.93 234.22 561.87 235.88 562.89 231.71 550.85 230.2 549.93 234.22" style="fill: rgb(69, 90, 100); transform-origin: 556.41px 233.04px;" id="elbun3wj905h5" class="animable"></polygon><path d="M563.61,236.2l.81-4.17a77.13,77.13,0,0,0,10.44,1c3.86-.07,11.88-1,11.88-1v4.36a98.49,98.49,0,0,1-12.06.68C570.82,236.82,563.61,236.2,563.61,236.2Z" style="fill: rgb(69, 90, 100); transform-origin: 575.175px 234.551px;" id="elrvoe1atjx8" class="animable"></path><path d="M588.42,236.2V232l6.34-.83.13,4.31Z" style="fill: rgb(69, 90, 100); transform-origin: 591.655px 233.685px;" id="elmmw26sac60i" class="animable"></path><path d="M575.4,255.2a45.92,45.92,0,0,1-2.94,6.22,47.69,47.69,0,0,1-3.4,6,47.68,47.68,0,0,1,3-6.22A48.44,48.44,0,0,1,575.4,255.2Z" style="fill: rgb(69, 90, 100); transform-origin: 572.23px 261.31px;" id="eltnxerf13ttq" class="animable"></path><path d="M553.27,238.27a8.84,8.84,0,0,1-1.23,2.21,22.37,22.37,0,0,1-4.16,4.49,22,22,0,0,1-5.22,3.2,8.9,8.9,0,0,1-2.41.78,28.52,28.52,0,0,0,13-10.68Z" style="fill: rgb(69, 90, 100); transform-origin: 546.76px 243.61px;" id="elu63dpawjf19" class="animable"></path><path d="M613.73,302.61c.07.14-1.71,1-3.49,2.56s-2.82,3.24-3,3.16a8.43,8.43,0,0,1,2.62-3.54A8.54,8.54,0,0,1,613.73,302.61Z" style="fill: rgb(69, 90, 100); transform-origin: 610.486px 305.471px;" id="eltxiadxnzw1b" class="animable"></path><path d="M483.73,126c.19.65,2.57,33.8,7.74,37.25s50.42,11.64,50.42,11.64L540.52,147l-12.22,4.47-24.75-3.26-8.29-26.39Z" style="fill: rgb(224, 224, 224); transform-origin: 512.81px 148.355px;" id="eltaezmubq4qg" class="animable"></path><path d="M535.9,173.23,538,221.48l-.3,1c-.59,1.86.91,4.86,2.81,5.31,7.58,1.78,25.11,4.75,34,5.1a63.3,63.3,0,0,0,20.23-2.45c1.51-1.67,2.51-4.3.9-5.71l1.48-57.61-2.72-17.52-2.18-2.8-13.63.41-4-4.31-19.36-1.42-3.6,4.69-11.14.83Z" style="fill: rgb(224, 224, 224); transform-origin: 566.51px 187.212px;" id="el21h70ftujct" class="animable"></path><g id="elcqovduu4jw"><polygon points="569.06 167.73 562.89 220.33 572.67 229.67 580.34 220.34 569.06 167.73" style="opacity: 0.3; transform-origin: 571.615px 198.7px;" class="animable" id="elxh369fx3iq"></polygon></g><path d="M570.06,157.66,565,218.87l8.27,9.18,7.07-7.72s-4.28-43.85-5.3-51.58c-1.13-8.51-1.61-11.57-1.61-11.57Z" style="fill: #407BFF; transform-origin: 572.67px 192.615px;" id="elbgpeo1voner" class="animable"></path><path d="M626.32,98.5l-3,27.34L605.75,142c-5.71,1.18-14.39,4.72-14.39,5.38l5.21,28.72,8.15-10.76s32.42-25,33.75-29.66,1.75-37.22,1.75-37.22Z" style="fill: rgb(224, 224, 224); transform-origin: 615.79px 137.28px;" id="ellt9xz12mbin" class="animable"></path><path d="M570.73,151.23a10.93,10.93,0,0,1-.91,1.75l-1.13,1.93-.73,1.17a10.34,10.34,0,0,1-.91,1.28l-.12.12-.16-.11-4.55-3.16c-2.86-2-5.43-3.84-7.28-5.19-.92-.67-1.66-1.22-2.17-1.61a3.65,3.65,0,0,1-.76-.65,3.39,3.39,0,0,1,.87.49c.54.34,1.31.85,2.26,1.48,1.9,1.28,4.51,3.07,7.36,5.07,1.63,1.14,3.16,2.23,4.53,3.2h-.27a27.65,27.65,0,0,0,1.61-2.3l1.22-1.87A9.89,9.89,0,0,1,570.73,151.23Z" style="fill: rgb(38, 50, 56); transform-origin: 561.37px 152.12px;" id="elv46feyfffy" class="animable"></path><polygon points="570.23 158.97 568.07 155.88 570.2 152.25 572.03 152.25 574.81 155.1 573.64 158.59 570.23 158.97" style="fill: #407BFF; transform-origin: 571.44px 155.61px;" id="elgqjyeqi02o" class="animable"></polygon><path d="M577.71,148.16a6.83,6.83,0,0,1-.15,2.14,20.76,20.76,0,0,1-1.45,5c-.09.2-.18.39-.26.58l-.14.32-.26-.24c-1.35-1.28-2.54-2.44-3.38-3.3a7.31,7.31,0,0,1-1.28-1.44,8,8,0,0,1,1.51,1.2c.9.78,2.13,1.9,3.5,3.17l-.4.08c.08-.18.16-.38.25-.57A45.23,45.23,0,0,0,577.71,148.16Z" style="fill: rgb(38, 50, 56); transform-origin: 574.263px 152.18px;" id="elji21ubobad" class="animable"></path><path d="M630,131.16c-.12.1-1.36-1.34-3.27-2.66s-3.67-2-3.62-2.14a8.55,8.55,0,0,1,3.91,1.73A8.85,8.85,0,0,1,630,131.16Z" style="fill: rgb(38, 50, 56); transform-origin: 626.554px 128.762px;" id="ela5b3q1nr56t" class="animable"></path><path d="M539.64,150.31a3.28,3.28,0,0,1,.19.92c.09.59.17,1.45.23,2.52a36.9,36.9,0,0,1-.61,8.35,36.37,36.37,0,0,1-2.49,8c-.44,1-.84,1.75-1.14,2.27a3.21,3.21,0,0,1-.51.78c-.07,0,.53-1.22,1.32-3.19A44.1,44.1,0,0,0,539,162a43.24,43.24,0,0,0,.74-8.24C539.69,151.64,539.56,150.32,539.64,150.31Z" style="fill: rgb(38, 50, 56); transform-origin: 537.698px 161.73px;" id="elw35m5k8k8ej" class="animable"></path><path d="M596.87,177.28a5,5,0,0,1-.07-1.12l0-3.07c0-2.58-.07-6.15-.38-10.08a52.8,52.8,0,0,0-1.57-9.92c-.69-2.49-1.46-3.89-1.38-3.94a5.58,5.58,0,0,1,.58,1,20.44,20.44,0,0,1,1.14,2.87,45.66,45.66,0,0,1,1.73,10c.31,3.95.29,7.54.24,10.13,0,1.29-.08,2.34-.12,3.06A4.5,4.5,0,0,1,596.87,177.28Z" style="fill: rgb(38, 50, 56); transform-origin: 595.327px 163.215px;" id="eldh3loau5yi6" class="animable"></path><path d="M535.9,162.06c-.13.06-1.39-2.62-3-5.85s-3.1-5.82-3-5.9A31.3,31.3,0,0,1,533.3,156,30.54,30.54,0,0,1,535.9,162.06Z" style="fill: rgb(38, 50, 56); transform-origin: 532.898px 156.185px;" id="elhgwrg9i80zo" class="animable"></path><path d="M504.1,148.45a16.65,16.65,0,0,1-1,9.22c-.14,0,.39-2,.65-4.59S504,148.46,504.1,148.45Z" style="fill: rgb(38, 50, 56); transform-origin: 503.714px 153.06px;" id="elj5kl3mwof" class="animable"></path><g id="elq9gensru31b"><polyline points="557.09 150.31 567.22 159.44 572.03 152.25 570.73 151.46 566.9 157.18 557.09 150.76" style="opacity: 0.3; transform-origin: 564.56px 154.875px;" class="animable" id="ell9w3bkqympp"></polyline></g><path d="M565,227.58a3.33,3.33,0,0,1-.92,0c-.58,0-1.43-.08-2.47-.19a67.15,67.15,0,0,1-8.06-1.38,66.2,66.2,0,0,1-7.84-2.36c-1-.36-1.77-.68-2.3-.92a3.22,3.22,0,0,1-.81-.42,29.39,29.39,0,0,1,3.23,1c2,.64,4.74,1.47,7.83,2.2s5.93,1.21,8,1.51A29.64,29.64,0,0,1,565,227.58Z" style="fill: rgb(38, 50, 56); transform-origin: 553.8px 224.961px;" id="eln8i9ny7zwo" class="animable"></path><path d="M562.87,95.2a3.84,3.84,0,0,1,4-2,5.27,5.27,0,0,1,6.49,0,4.69,4.69,0,0,1,7.14,3.69,3.91,3.91,0,0,1,3.55,6.52,3.76,3.76,0,0,1-1.43,7.34L563.66,99.59A3.85,3.85,0,0,1,562.87,95.2Z" style="fill: rgb(38, 50, 56); transform-origin: 574.604px 101.423px;" id="elmtrp5gti90a" class="animable"></path><path d="M576.21,144.58l0-3s8.53-1.51,8.46-10.07c0-4.14-.8-12.65-1.58-20.34a15.93,15.93,0,0,0-16.2-14.34h-.82c-8.9.71-13.27,8.65-12.32,17.53l1.48,27,15.37,8.87" style="fill: rgb(255, 191, 157); transform-origin: 569.146px 123.528px;" id="elqnbqtifqpc" class="animable"></path><path d="M576.23,141.64A20.82,20.82,0,0,1,565,138.56s2.75,6.12,11.2,5.2Z" style="fill: rgb(255, 154, 108); transform-origin: 570.615px 141.207px;" id="el0ozrcs9xlmwo" class="animable"></path><path d="M579.32,119.57a1.22,1.22,0,0,1-1.15,1.26,1.18,1.18,0,0,1-1.28-1.08,1.22,1.22,0,0,1,1.15-1.26A1.16,1.16,0,0,1,579.32,119.57Z" style="fill: rgb(38, 50, 56); transform-origin: 578.105px 119.659px;" id="elhakte59owtp" class="animable"></path><path d="M581.47,115.88c-.14.16-1.08-.51-2.4-.48s-2.26.71-2.41.55.08-.36.49-.67a3.3,3.3,0,0,1,1.93-.64,3.21,3.21,0,0,1,1.91.57C581.41,115.52,581.55,115.8,581.47,115.88Z" style="fill: rgb(38, 50, 56); transform-origin: 579.053px 115.307px;" id="elu3o4yoea6a" class="animable"></path><path d="M567.38,119.8a1.23,1.23,0,0,1-1.15,1.26,1.17,1.17,0,0,1-1.29-1.07,1.23,1.23,0,0,1,1.15-1.26A1.17,1.17,0,0,1,567.38,119.8Z" style="fill: rgb(38, 50, 56); transform-origin: 566.16px 119.895px;" id="el5mm7h37vpij" class="animable"></path><path d="M568.89,116c-.15.16-1.09-.5-2.41-.47s-2.26.71-2.41.55.08-.36.49-.68a3.37,3.37,0,0,1,1.93-.63,3.2,3.2,0,0,1,1.92.57C568.82,115.59,569,115.88,568.89,116Z" style="fill: rgb(38, 50, 56); transform-origin: 566.473px 115.436px;" id="el8dnlaj4buw3" class="animable"></path><path d="M573.42,125.61a9.19,9.19,0,0,1,2.13-.43c.33,0,.65-.11.7-.34a1.64,1.64,0,0,0-.24-1c-.33-.81-.68-1.66-1-2.54a45.62,45.62,0,0,1-2.37-6.65,43.61,43.61,0,0,1,2.9,6.44l1,2.56a2,2,0,0,1,.2,1.31.85.85,0,0,1-.55.5,2.09,2.09,0,0,1-.56.09A8.33,8.33,0,0,1,573.42,125.61Z" style="fill: rgb(38, 50, 56); transform-origin: 574.707px 120.153px;" id="elwtesu8exy9" class="animable"></path><path d="M568.83,112.19c-.15.35-1.29.07-2.67.12s-2.52.36-2.66,0c-.07-.16.15-.48.63-.78a4.1,4.1,0,0,1,2-.58,3.9,3.9,0,0,1,2,.48C568.67,111.72,568.89,112,568.83,112.19Z" style="fill: rgb(38, 50, 56); transform-origin: 566.163px 111.715px;" id="elkc9utplxjkd" class="animable"></path><path d="M581.1,112.27c-.2.32-1.13.11-2.22.21s-2,.4-2.22.11,0-.45.38-.77a3.2,3.2,0,0,1,3.58-.26C581,111.83,581.19,112.12,581.1,112.27Z" style="fill: rgb(38, 50, 56); transform-origin: 578.847px 111.923px;" id="elurcxsayjyv" class="animable"></path><path d="M582.22,107.31s-2.37-5.32-5-6.51c-3.16-1.45-4.44,2-7.44,1.24s-6-2.17-9,.2c-3.29,2.59-1.69,4.33-1.82,8.13-.51,15.42-3.24,19.83-4.19,12.6-.1-.8-2.32-1.38-2.71-4.73-.52-4.35-.79-9.63.11-12.74.77-2.62,2.22-4.45,4.84-6.49,4.14-3.22,9.91-3.41,13.84-3.09S582.44,100.59,582.22,107.31Z" style="fill: rgb(38, 50, 56); transform-origin: 566.903px 111.083px;" id="elc8nmcblrxsw" class="animable"></path><path d="M555.33,122.72a2.34,2.34,0,0,0-2.56-2.19c-1.59.19-3.35,1.13-3.18,4.43.31,5.85,6.12,4.33,6.12,4.16S555.48,125.17,555.33,122.72Z" style="fill: rgb(255, 191, 157); transform-origin: 552.644px 124.97px;" id="elqwx44y1jtw" class="animable"></path><path d="M554.32,127s-.1.08-.26.16a1,1,0,0,1-.77.06A2.51,2.51,0,0,1,552,125a3.35,3.35,0,0,1,.21-1.47,1.18,1.18,0,0,1,.72-.83.53.53,0,0,1,.62.25c.09.16.05.28.09.29s.12-.11.06-.35a.7.7,0,0,0-.25-.35.78.78,0,0,0-.57-.12,1.44,1.44,0,0,0-1,1,3.44,3.44,0,0,0-.27,1.65,2.65,2.65,0,0,0,1.62,2.45,1.09,1.09,0,0,0,.92-.2C554.32,127.13,554.34,127,554.32,127Z" style="fill: rgb(255, 154, 108); transform-origin: 552.962px 124.979px;" id="el5s222o5n17q" class="animable"></path><path d="M555.21,111.38a5.54,5.54,0,0,0,2.5,1.09,1.91,1.91,0,0,0,2.09-1.38c.06-.41,0-.88.21-1.2s.91-.28,1.4-.24a3.73,3.73,0,0,0,3.82-2.76,1.57,1.57,0,0,0,2.11.16,9,9,0,0,0,1.56-1.74,2.41,2.41,0,0,1,2-1,5.39,5.39,0,0,0,1.28.26c.77-.09,1.13-1,1.23-1.76s.17-1.66.81-2.08a3,3,0,0,1,2.09-.1c.71.09,1.62-.1,1.79-.79a1.41,1.41,0,0,0-.28-1.06,3.79,3.79,0,0,0-4.51-1.34,5.14,5.14,0,0,0-9.46-.8,5.2,5.2,0,0,0-8.29,2.07,3.78,3.78,0,0,0-4.15,5.58,3.62,3.62,0,0,0-1.92,2.9,2.05,2.05,0,0,0,2.37,2,2.1,2.1,0,0,0,3.67,2" style="fill: rgb(38, 50, 56); transform-origin: 563.802px 103.175px;" id="elpxc7xajxvmg" class="animable"></path><path d="M570.21,127.77a.54.54,0,0,0-.39-.06.43.43,0,0,0-.22.27,2.93,2.93,0,0,0,.33,2.83v0a2,2,0,0,0,3.31-.42l.46-1Z" style="fill: rgb(255, 154, 108); transform-origin: 571.539px 129.601px;" id="eljkmfdyxhmt" class="animable"></path><path d="M572.93,130.89c.05,0-.39.6-1.45.73a1.66,1.66,0,0,1-.86-.14,1.88,1.88,0,0,1-.81-.59,3.51,3.51,0,0,1-.59-2.14,4,4,0,0,1,0-.59.87.87,0,0,1,.35-.59.68.68,0,0,1,.67,0c.16.07.31.15.46.23l1.54.8a6.59,6.59,0,0,1,1.38.83,6.67,6.67,0,0,1-1.5-.59l-1.58-.73c-.28-.12-.66-.36-.78-.25s-.2.5-.2.86a3.29,3.29,0,0,0,.48,1.92,1.73,1.73,0,0,0,.66.51,1.45,1.45,0,0,0,.72.16A3.51,3.51,0,0,0,572.93,130.89Z" style="fill: rgb(38, 50, 56); transform-origin: 571.415px 129.555px;" id="elpa1d4mwuqqa" class="animable"></path><path d="M551.41,109.19a1.45,1.45,0,0,0,.39,1.12A1.89,1.89,0,0,0,553,111a2,2,0,0,0,1.66-.52l-.25,0a5.89,5.89,0,0,0,1.2,1.44,3.47,3.47,0,0,0,1.08.64,2.28,2.28,0,0,0,1.18.08,2.33,2.33,0,0,0,1.67-1,3.52,3.52,0,0,0,.45-1.23,1.13,1.13,0,0,0,0-.47s-.07.15-.16.44a3.82,3.82,0,0,1-.52,1.12,2.38,2.38,0,0,1-3.51.16,6,6,0,0,1-1.15-1.35l-.1-.17-.14.14a1.78,1.78,0,0,1-1.41.48,1.72,1.72,0,0,1-1.07-.54A3.12,3.12,0,0,1,551.41,109.19Z" style="fill: rgb(69, 90, 100); transform-origin: 555.71px 110.937px;" id="elw04oo7yxv09" class="animable"></path><path d="M562.2,95.59s.15,0,.41.15a2,2,0,0,1,.93.75l.07.11.08-.11a7.31,7.31,0,0,1,2.78-2.35,5.72,5.72,0,0,1,2.3-.55,4.73,4.73,0,0,1,2.49.66,4.8,4.8,0,0,1,1.5,1.36,3.92,3.92,0,0,1,.68,1.76l0,.18.17,0a3.3,3.3,0,0,1,2.44.24,3.24,3.24,0,0,1,1.36,1.4,4.24,4.24,0,0,1,.4,1.73,1.06,1.06,0,0,0,.06-.48,3.26,3.26,0,0,0-.29-1.33,3.39,3.39,0,0,0-1.4-1.55,3.53,3.53,0,0,0-2.65-.31l.19.13a4.17,4.17,0,0,0-.71-1.9,5.09,5.09,0,0,0-4.28-2.17,5.8,5.8,0,0,0-2.41.62,7,7,0,0,0-2.81,2.51h.15a2,2,0,0,0-1-.74A1,1,0,0,0,562.2,95.59Z" style="fill: rgb(69, 90, 100); transform-origin: 570.038px 97.1144px;" id="ela1cr0pnzhff" class="animable"></path><path d="M636,91.44a5.78,5.78,0,0,1-.24-1.42,9.94,9.94,0,0,0-.93-3.23,5.74,5.74,0,0,0-2.28-2.35c-.75-.4-1.31-.45-1.3-.54a2.18,2.18,0,0,1,1.45.22,5.26,5.26,0,0,1,2.57,2.44,8.27,8.27,0,0,1,.85,3.43A3.45,3.45,0,0,1,636,91.44Z" style="fill: rgb(255, 154, 108); transform-origin: 633.699px 87.6499px;" id="elumkfco3gu09" class="animable"></path><path d="M488.64,122.54a3.41,3.41,0,0,1-.53-1.5,8.65,8.65,0,0,1,2-7.23,3.42,3.42,0,0,1,1.23-1c.06.06-.39.47-1,1.23a10.45,10.45,0,0,0-1.63,3.3,10.21,10.21,0,0,0-.32,3.66A10.22,10.22,0,0,1,488.64,122.54Z" style="fill: rgb(255, 154, 108); transform-origin: 489.659px 117.675px;" id="el57n816j2pb3" class="animable"></path></g><g id="freepik--character-1--inject-257" class="animable" style="transform-origin: 161.76px 329.373px;"><path d="M127.76,445.68l-5.29,16,0,1.88s19.27,7,19.5,10.58l-37.18.2-.09-9.35,4.54-19.3Z" style="fill: rgb(38, 50, 56); transform-origin: 123.335px 460.01px;" id="eltcomf3u3ddi" class="animable"></path><path d="M110.91,462.05a1.52,1.52,0,0,0-1,1.74,1.46,1.46,0,0,0,1.71,1,1.6,1.6,0,0,0,1.1-1.84,1.52,1.52,0,0,0-1.91-.89" style="fill: rgb(224, 224, 224); transform-origin: 111.315px 463.401px;" id="elto00r9rdfj" class="animable"></path><path d="M104.74,474.38l.09-3,35.62.95s1.65.71,1.47,1.87Z" style="fill: rgb(69, 90, 100); transform-origin: 123.337px 472.88px;" id="els8qfci5czch" class="animable"></path><path d="M123,463.41c0,.18-.92.27-1.81.86s-1.36,1.35-1.53,1.28.1-1.12,1.19-1.82S123.06,463.24,123,463.41Z" style="fill: rgb(255, 255, 255); transform-origin: 121.308px 464.398px;" id="elevvie7lsofj" class="animable"></path><path d="M126.93,465c0,.18-.75.49-1.36,1.26s-.79,1.59-1,1.58-.3-1,.48-2S126.92,464.83,126.93,465Z" style="fill: rgb(255, 255, 255); transform-origin: 125.677px 466.379px;" id="elobfigb5pq4m" class="animable"></path><path d="M129.16,469.66c-.16,0-.42-.87,0-1.86s1.31-1.4,1.39-1.25-.45.68-.81,1.51S129.34,469.64,129.16,469.66Z" style="fill: rgb(255, 255, 255); transform-origin: 129.745px 468.09px;" id="elus8zzh1qzw" class="animable"></path><path d="M198.65,445.68l-5.29,16-.06,1.88s19.27,7,19.51,10.58l-37.18.2-.1-9.35,4.55-19.3Z" style="fill: rgb(38, 50, 56); transform-origin: 194.17px 460.01px;" id="el6v3t21m8952" class="animable"></path><path d="M182.06,462.05a1.52,1.52,0,0,0-1,1.74,1.46,1.46,0,0,0,1.71,1,1.59,1.59,0,0,0,1.1-1.84,1.52,1.52,0,0,0-1.91-.89" style="fill: rgb(224, 224, 224); transform-origin: 182.466px 463.401px;" id="eli4abckqsyzr" class="animable"></path><path d="M175.63,474.38l0-3,36,1s1.66.71,1.47,1.87Z" style="fill: rgb(69, 90, 100); transform-origin: 194.373px 472.88px;" id="elof6fjkkc28e" class="animable"></path><path d="M194.17,463.41c0,.18-.91.27-1.81.86s-1.36,1.35-1.52,1.28.09-1.12,1.18-1.82S194.21,463.24,194.17,463.41Z" style="fill: rgb(255, 255, 255); transform-origin: 192.483px 464.398px;" id="ellwhspgpy63n" class="animable"></path><path d="M198.08,465c0,.18-.75.49-1.36,1.26s-.79,1.59-1,1.58-.3-1,.48-2S198.07,464.83,198.08,465Z" style="fill: rgb(255, 255, 255); transform-origin: 196.827px 466.379px;" id="el3jqxdb9iqve" class="animable"></path><path d="M200.31,469.66c-.16,0-.42-.87,0-1.86s1.31-1.4,1.39-1.25-.45.68-.81,1.51S200.5,469.64,200.31,469.66Z" style="fill: rgb(255, 255, 255); transform-origin: 200.895px 468.09px;" id="el0m34l8wxw5mj" class="animable"></path><path d="M138.2,345.33V355l-14.37,39.48a159.39,159.39,0,0,0-19.21,60.82h21.75c-1-4,21.27-47.74,23.54-50.14s15.48-36.18,15.48-36.18-13.93-23.37-14.94-23.61S138.2,345.33,138.2,345.33Z" style="fill: rgb(38, 50, 56); transform-origin: 135.005px 400.276px;" id="eld0mx9rieqyr" class="animable"></path><g id="elzv08tytd2bf"><polygon points="139.72 350.17 159.61 383.39 162.33 376.65 139.72 350.17" style="opacity: 0.3; transform-origin: 151.025px 366.78px;" class="animable" id="el7tsf5t36k2"></polygon></g><path d="M182.43,335.84V325.09l-43.2-3.88c0,1.41-9.18,19.78,3.51,32.74l39.71,46-6.8,61.17h22.57v-1.28s4-21.52,4.31-23.49S208.61,399.88,209,394C209.48,386.77,182.43,335.84,182.43,335.84Z" style="fill: rgb(38, 50, 56); transform-origin: 172.513px 391.165px;" id="el3bkfbd4prye" class="animable"></path><path d="M182.43,335.84l.32.55.89,1.65,3.39,6.43c2.92,5.62,7.18,13.83,12.21,24.3,2.5,5.25,5.26,11,7.8,17.49.62,1.62,1.23,3.28,1.71,5a10.12,10.12,0,0,1,.44,2.73c-.08.92-.17,1.84-.29,2.76-.46,3.7-1,7.49-1.63,11.41-1.2,7.82-2.54,16.08-4,24.73-.66,4.33-1.55,8.73-2.35,13.23s-1.66,9.08-2.51,13.75v1.47H175.38l0-.28c1-9,2.05-18.5,3.12-28.14l3.68-33,0,.19-34.09-39.54c-2.62-3.07-5.21-6-7.71-9a23.26,23.26,0,0,1-4.3-10.33,31.76,31.76,0,0,1,.25-10.59,46.92,46.92,0,0,1,1.18-4.91q.36-1.2.75-2.34a21.09,21.09,0,0,0,.71-2.24l0-.19h.16l43.19,4h.07v.07c0,3.6,0,6.28,0,8.07,0,.89,0,1.55,0,2s0,.67,0,.67,0-.22,0-.66,0-1.12,0-2c0-1.8,0-4.48,0-8.09l.07.08-43.2-3.79.19-.17a19.59,19.59,0,0,1-.72,2.35c-.26.77-.51,1.54-.74,2.33a45.09,45.09,0,0,0-1.17,4.88,31.22,31.22,0,0,0-.22,10.45,22.85,22.85,0,0,0,4.25,10.15c2.44,2.9,5.07,5.86,7.69,8.91,10.52,12.19,22,25.48,34.14,39.52l.07.08V400c-1.19,10.67-2.42,21.73-3.67,33-1.07,9.65-2.13,19.11-3.13,28.15l-.25-.28h22.57l-.24.24v-1.32c.85-4.66,1.7-9.24,2.52-13.74s1.7-8.88,2.37-13.22c1.42-8.65,2.77-16.91,4-24.73.6-3.91,1.18-7.7,1.65-11.39.13-.92.22-1.83.3-2.73a10.31,10.31,0,0,0-.42-2.62,52.2,52.2,0,0,0-1.69-5c-2.52-6.44-5.25-12.24-7.73-17.49-5-10.48-9.21-18.71-12.08-24.36-1.45-2.81-2.56-5-3.33-6.46-.37-.73-.65-1.29-.85-1.67Z" style="fill: rgb(69, 90, 100); transform-origin: 172.471px 391.155px;" id="elxhgaul74vt" class="animable"></path><path d="M146.84,191.09c.63-3.11,2.83-4.77,5.76-6a9.91,9.91,0,0,1,9.11.87c1.77,1.17,3.21,3,5.26,3.52,3.37.93,7.07-1.79,10.33-.52a4.51,4.51,0,0,1-1.57,8.71c2.2.65,3.07,3.67,1.93,5.67a6,6,0,0,1-5.94,2.61,12.6,12.6,0,0,1-6.13-2.93c-1.8-1.42-3.44-3-5.35-4.32a9.89,9.89,0,0,0-6.47-1.91c-3.08.37-5.59,2.88-6.78,5.74a23.07,23.07,0,0,0-1.28,9.17,38.8,38.8,0,0,1-.55,9.27,1.14,1.14,0,0,1-.56.89c-.5.19-1-.32-1.24-.77a45.59,45.59,0,0,1-6.3-16.57c-.57-3.41-.69-6.66,1-9.67s6.33-5.45,8.78-3.78" style="fill: rgb(38, 50, 56); transform-origin: 158.424px 203.133px;" id="elsrq8zv2qemr" class="animable"></path><path d="M141.8,205.85l.62,31.71c.11,5.92,4.69,16.49,14,15.88l-.19-.53c8.08-1.14,6.88-10.71,6.84-17.74h0s8.85-1,9.32-9.79c.23-4.25,0-13-.33-21a16.39,16.39,0,0,0-15.71-15.72l-.85,0C146.37,188.81,141.38,196.69,141.8,205.85Z" style="fill: rgb(255, 191, 157); transform-origin: 157.129px 221.063px;" id="el8xl3ozvx3hd" class="animable"></path><path d="M163.11,235.17a21.22,21.22,0,0,1-11.3-3.85s2.48,6.93,11.29,6.5Z" style="fill: rgb(255, 154, 108); transform-origin: 157.46px 234.58px;" id="elqjoazzud12s" class="animable"></path><path d="M169.07,212.37a1.26,1.26,0,0,1-1.27,1.21,1.19,1.19,0,0,1-1.24-1.18,1.25,1.25,0,0,1,1.26-1.22A1.21,1.21,0,0,1,169.07,212.37Z" style="fill: rgb(38, 50, 56); transform-origin: 167.815px 212.38px;" id="elibbbc84z7e" class="animable"></path><path d="M170,208.64c-.16.16-1.08-.58-2.43-.64s-2.37.59-2.51.42.1-.37.54-.67a3.5,3.5,0,0,1,2-.53,3.33,3.33,0,0,1,1.93.71C170,208.27,170.11,208.57,170,208.64Z" style="fill: rgb(38, 50, 56); transform-origin: 167.53px 207.94px;" id="eloz8cy11kwd" class="animable"></path><path d="M157.2,212.13a1.25,1.25,0,0,1-1.26,1.22,1.21,1.21,0,0,1-1.25-1.19A1.26,1.26,0,0,1,156,211,1.19,1.19,0,0,1,157.2,212.13Z" style="fill: rgb(38, 50, 56); transform-origin: 155.945px 212.175px;" id="elwalj64e6a1n" class="animable"></path><path d="M156.74,208.35c-.16.16-1.08-.59-2.43-.64s-2.37.59-2.51.41.1-.36.54-.66a3.5,3.5,0,0,1,2-.53,3.33,3.33,0,0,1,1.93.71C156.69,208,156.82,208.28,156.74,208.35Z" style="fill: rgb(38, 50, 56); transform-origin: 154.261px 207.65px;" id="elm74mgsih4pd" class="animable"></path><path d="M161.24,218.57a8.64,8.64,0,0,1,2.21-.31c.34,0,.67-.07.74-.31a1.78,1.78,0,0,0-.19-1l-.91-2.67c-1.27-3.8-2.17-6.91-2-7a45.78,45.78,0,0,1,2.56,6.78c.31.94.6,1.83.87,2.69a2,2,0,0,1,.13,1.36.9.9,0,0,1-.59.48,2.67,2.67,0,0,1-.59.06A9,9,0,0,1,161.24,218.57Z" style="fill: rgb(38, 50, 56); transform-origin: 162.892px 212.983px;" id="eldztfnzo0xfp" class="animable"></path><path d="M157.31,203.07c-.15.36-1.49.13-3.09.26s-2.89.5-3.08.17c-.09-.17.14-.5.68-.84a5.39,5.39,0,0,1,4.7-.32C157.09,202.6,157.37,202.9,157.31,203.07Z" style="fill: rgb(38, 50, 56); transform-origin: 154.219px 202.79px;" id="elbdl28l8sakk" class="animable"></path><path d="M169.7,204.71c-.25.3-1.17-.06-2.29-.12s-2.08.12-2.28-.21c-.09-.16.07-.46.5-.73a3.14,3.14,0,0,1,1.88-.43,3.2,3.2,0,0,1,1.8.69C169.69,204.24,169.81,204.56,169.7,204.71Z" style="fill: rgb(38, 50, 56); transform-origin: 167.422px 204.018px;" id="elyjwsm5gqsbe" class="animable"></path><path d="M142.25,212.39c-.15-.08-6-2-6,4s6,4.83,6,4.66S142.25,212.39,142.25,212.39Z" style="fill: rgb(255, 191, 157); transform-origin: 139.25px 216.644px;" id="el5olgkoahyo7" class="animable"></path><path d="M140.42,218.73s-.11.07-.29.15a1,1,0,0,1-.78,0,2.6,2.6,0,0,1-1.18-2.34,3.43,3.43,0,0,1,.31-1.49,1.2,1.2,0,0,1,.79-.8.54.54,0,0,1,.62.29c.08.17,0,.29.07.3s.13-.1.09-.35a.73.73,0,0,0-.24-.38.79.79,0,0,0-.58-.16,1.5,1.5,0,0,0-1.1.93,3.6,3.6,0,0,0-.38,1.67,2.7,2.7,0,0,0,1.51,2.61,1.1,1.1,0,0,0,1-.15C140.41,218.88,140.44,218.74,140.42,218.73Z" style="fill: rgb(255, 154, 108); transform-origin: 139.085px 216.581px;" id="eleb4sbtih6a" class="animable"></path><path d="M172.54,196.22a11.4,11.4,0,0,0-3.52-4.4,19.56,19.56,0,0,0-11.19-4.53,16,16,0,0,0-11.36,3.77,16.73,16.73,0,0,0-5,8.31,24.58,24.58,0,0,0-.46,9.74,7.46,7.46,0,0,0,1.47,4,1.92,1.92,0,0,0,2.37.63,2.37,2.37,0,0,0,.76-1.36c1.35-4.59,2.69-9.53,1.18-14.07a13.88,13.88,0,0,1,4.29-3.64,7.16,7.16,0,0,1,5.49-.52c2.65.94,4.19,3.61,6.26,5.51a12.67,12.67,0,0,0,11.17,3Z" style="fill: rgb(38, 50, 56); transform-origin: 157.362px 200.588px;" id="elt22lz58pytd" class="animable"></path><path d="M179.1,190.47a1.25,1.25,0,0,1,.07.41,4,4,0,0,1-.13,1.17,5.51,5.51,0,0,1-2.66,3.32,8.18,8.18,0,0,1-6.3.39c-2.35-.67-4.58-2.17-6.94-3.55s-4.83-2.45-7.2-2.36a9.36,9.36,0,0,0-5.69,2.27,12.73,12.73,0,0,0-2.76,3.2c-.5.87-.71,1.39-.75,1.37a1.73,1.73,0,0,1,.13-.38,10.25,10.25,0,0,1,.49-1.07,12.25,12.25,0,0,1,2.71-3.34,9.6,9.6,0,0,1,5.86-2.41c2.47-.12,5,1,7.4,2.38s4.58,2.88,6.86,3.54a7.93,7.93,0,0,0,6.06-.28,5.46,5.46,0,0,0,2.64-3.12A5.84,5.84,0,0,0,179.1,190.47Z" style="fill: rgb(69, 90, 100); transform-origin: 162.956px 193.086px;" id="elogi0noeao7" class="animable"></path><path d="M137.76,203a4.28,4.28,0,0,1,.46-1.59,10.37,10.37,0,0,1,2.3-3.31,10.56,10.56,0,0,1,1.76-1.36,3.79,3.79,0,0,1,1.74-.62,2,2,0,0,1,1.22.31c.24.18.32.33.31.34a2.33,2.33,0,0,0-1.5-.38,6.87,6.87,0,0,0-3.26,2,12.41,12.41,0,0,0-2.32,3.14C138,202.37,137.82,203,137.76,203Z" style="fill: rgb(69, 90, 100); transform-origin: 141.655px 199.557px;" id="elsk252pjb43" class="animable"></path><path d="M138.6,208.29a4.52,4.52,0,0,1,.57-1.58,11.09,11.09,0,0,1,5.92-5.33,4.46,4.46,0,0,1,1.63-.4c0,.06-.6.23-1.52.65a12.77,12.77,0,0,0-5.79,5.21A15.86,15.86,0,0,1,138.6,208.29Z" style="fill: rgb(69, 90, 100); transform-origin: 142.66px 204.635px;" id="elm8x6bo2wc2" class="animable"></path><path d="M160.68,222.39c0,.09-.33.26-.92.29a4.32,4.32,0,0,1-2.24-.57,4.23,4.23,0,0,1-1.63-1.64c-.28-.53-.31-.9-.22-.94s.84,1.13,2.23,1.9S160.65,222.16,160.68,222.39Z" style="fill: rgb(38, 50, 56); transform-origin: 158.152px 221.105px;" id="elb55kll97wcu" class="animable"></path><polygon points="141.59 233.45 141.55 231.74 163.84 239.48 169.1 248.62 164.72 250.3 152.87 246.01 141.59 233.45" style="fill: rgb(250, 250, 250); transform-origin: 155.325px 241.02px;" id="el5eivj9dv3p" class="animable"></polygon><path d="M140.57,238.18s-11.19,13.44-7,34.75c4.18,21.16,6.26,36.37,6.26,36.37l-7.51,36.83,59.31.11-7.51-80.35L172,249l-5.44-1.91-1.55-1.8a22.39,22.39,0,0,0-8.92-6.29l-14.52-5.59Z" style="fill: rgb(38, 50, 56); transform-origin: 161.975px 289.825px;" id="el3jf14yh9gsv" class="animable"></path><path d="M165.28,266.51a3.37,3.37,0,0,1-.6.72c-.41.44-1,1.06-1.77,1.81-1.52,1.51-3.67,3.54-6.1,5.71s-4.71,4.07-6.38,5.41c-.84.67-1.52,1.2-2,1.56a3.39,3.39,0,0,1-.78.51,23.31,23.31,0,0,1,2.55-2.34l6.27-5.51c2.37-2.14,4.51-4.07,6.19-5.6A25.42,25.42,0,0,1,165.28,266.51Z" style="fill: rgb(69, 90, 100); transform-origin: 156.465px 274.37px;" id="el97jmizr7oqk" class="animable"></path><path d="M147.15,249.24c1.16-2.35,3.8-3.94,7.18-4.51a18.79,18.79,0,0,1,7.38.55l31.9,9.13,10.23-21.67,14.77,2.42s-6.13,31.77-12.43,37.45c-4.45,4-23,.05-33-1.07a106.12,106.12,0,0,1-18.75-4.3" style="fill: rgb(38, 50, 56); transform-origin: 182.88px 253.551px;" id="elxt9710inc8g" class="animable"></path><path d="M154.4,267.24a4.5,4.5,0,0,1,.45.12l1.32.39c1.15.33,2.86.82,5.08,1.37s4.95,1.17,8.15,1.72c1.6.29,3.32.5,5.16.71s3.76.5,5.78.79c4.06.57,8.49,1.24,13.28,1.62A45.68,45.68,0,0,0,201,274a12.22,12.22,0,0,0,3.73-.82,6.16,6.16,0,0,0,2.76-2.62,39,39,0,0,0,3.47-7.47c1-2.66,1.83-5.42,2.64-8.24,1.61-5.66,3-11.59,4.31-17.69q.21-1,.42-2.07l.21.29L203.8,233l.26-.13c-3.65,7.7-7.09,15-10.24,21.66l-.09.17-.18-.05-19.35-5.58-8.11-2.35-3.6-1a19.47,19.47,0,0,0-3.32-.76,13.33,13.33,0,0,0-9.63,1.75,7.54,7.54,0,0,0-2.39,2.59,3.87,3.87,0,0,1,.44-.81,7.37,7.37,0,0,1,1.87-1.9,11.57,11.57,0,0,1,3.94-1.72,15.42,15.42,0,0,1,5.81-.17,19.57,19.57,0,0,1,3.36.74l3.61,1,8.12,2.29,19.37,5.51-.26.12,10.2-21.68.08-.17.19,0,14.77,2.42.25,0-.05.25-.42,2.08c-1.28,6.12-2.7,12.05-4.32,17.72-.82,2.84-1.69,5.6-2.67,8.27a39.91,39.91,0,0,1-3.53,7.56,10,10,0,0,1-1.27,1.63,4.6,4.6,0,0,1-1.7,1.16,12.92,12.92,0,0,1-3.87.84,45.3,45.3,0,0,1-7.48-.1c-4.81-.39-9.25-1.09-13.3-1.68-2-.3-3.95-.59-5.77-.83s-3.57-.44-5.17-.74c-3.2-.58-5.93-1.23-8.15-1.81s-3.92-1.1-5.06-1.47c-.58-.18-1-.33-1.3-.44Z" style="fill: rgb(69, 90, 100); transform-origin: 183.025px 253.529px;" id="eliv5gz8ksjfr" class="animable"></path><path d="M159.83,244.86a2.38,2.38,0,0,1-.81-.06c-.51-.07-1.25-.22-2.16-.44a49.57,49.57,0,0,1-6.9-2.27c-2.63-1.06-5-2.16-6.63-3a22,22,0,0,1-2.68-1.34,14.8,14.8,0,0,1,2.83,1c1.71.7,4.05,1.75,6.67,2.8s5,1.88,6.8,2.4A28.91,28.91,0,0,1,159.83,244.86Z" style="fill: rgb(69, 90, 100); transform-origin: 150.24px 241.311px;" id="elerhh408gbyb" class="animable"></path><path d="M171.61,290.58a4.91,4.91,0,0,1-.8.87c-.53.54-1.32,1.29-2.32,2.2-2,1.83-4.81,4.28-8.06,6.82s-6.29,4.71-8.54,6.2c-1.13.75-2,1.34-2.7,1.73a5.34,5.34,0,0,1-1,.57,5,5,0,0,1,.93-.73l2.6-1.86c2.19-1.56,5.2-3.76,8.43-6.3s6.09-4.93,8.14-6.69l2.42-2.08A6.5,6.5,0,0,1,171.61,290.58Z" style="fill: rgb(69, 90, 100); transform-origin: 159.9px 299.775px;" id="ely2iy9r2i3q" class="animable"></path><path d="M206.81,230.85s-5.53-2.26-6.85-3.59-2.77-1.92-1.56-2.64,2.67-.36,4,.6a2.09,2.09,0,0,0,2.51,0,56.82,56.82,0,0,0-2.51-7.1c-1.1-2.16-3.86-6.37-3.74-7.93s1.2-2.29,2-.72,4,6.49,4.57,6.37-1.56-9.74-.84-10.22,2.28-1.08,2.4,1.32a53.23,53.23,0,0,0,1.45,7.46s-.24-8.54,1.08-8.3,1.32,1.08,1.44,2.52,1.44,7.22,1.44,7.22.37-7.1,1.69-7,1.56.25,1.44,1.69,1.32,15,1.32,15.51v6.32l-9.3-1.53" style="fill: rgb(255, 191, 157); transform-origin: 207.298px 218.771px;" id="elynzvx0fdy9d" class="animable"></path><path d="M191.65,346.24c0,.14-13.28.23-29.65.2s-29.66-.18-29.66-.31,13.28-.23,29.66-.2S191.65,346.1,191.65,346.24Z" style="fill: rgb(69, 90, 100); transform-origin: 161.995px 346.185px;" id="elzz83v39nel" class="animable"></path><polygon points="204.51 232.85 205.65 230.35 218.22 232.14 217.91 235.05 204.51 232.85" style="fill: rgb(224, 224, 224); transform-origin: 211.365px 232.7px;" id="el95ixqfb2dcj" class="animable"></polygon><path d="M198,261.35c-.14,0-.83-1.73-2.13-3.66s-2.66-3.25-2.56-3.36a12,12,0,0,1,4.69,7Z" style="fill: rgb(69, 90, 100); transform-origin: 195.652px 257.84px;" id="elogzrdweoifm" class="animable"></path><g id="elbxrzrje0g9d"><polygon points="138.41 347.85 189.19 348.85 187.79 346.13 137.71 346.24 138.41 347.85" style="opacity: 0.3; transform-origin: 163.45px 347.49px;" class="animable" id="elmy9tzmx96s"></polygon></g><g id="eli5w9prgczwa"><path d="M151.86,328.56l-.84,3h22.09l-.6-3A86.45,86.45,0,0,0,151.86,328.56Z" style="opacity: 0.3; transform-origin: 162.065px 329.751px;" class="animable" id="elkj26ws04hbm"></path></g><path d="M152.47,321.77c-.9,2.9-1.49,4.77-2.39,7.67,6.15-.62,17.76-.37,23.65-.25.15-2.23,0-6.93,0-6.93" style="fill: rgb(38, 50, 56); transform-origin: 161.938px 325.605px;" id="ele2hp3b8jjfb" class="animable"></path><path d="M173.76,322.26a13,13,0,0,1,.14,1.87c0,1.2.11,2.93,0,5.07v.18h-.19c-3.3,0-7.63-.1-12.37-.09-4.22,0-8.13.07-11.25.35l-.31,0,.1-.29c.74-2.25,1.35-4.13,1.82-5.54.21-.61.39-1.11.53-1.53a2.26,2.26,0,0,1,.23-.53,2.17,2.17,0,0,1-.11.57c-.12.42-.26.94-.43,1.55l-1.65,5.61-.22-.27c3.15-.33,7.06-.43,11.29-.44,4.74,0,9.08.1,12.38.21l-.19.18c.13-2.11.12-3.85.14-5.05A12.77,12.77,0,0,1,173.76,322.26Z" style="fill: rgb(69, 90, 100); transform-origin: 161.864px 325.695px;" id="elnpwetwwun4h" class="animable"></path><path d="M172.23,321a18.3,18.3,0,0,1-2.71,0c-1.68-.07-4-.14-6.54-.12s-4.86.13-6.53.23a16.85,16.85,0,0,1-2.71.09,12.6,12.6,0,0,1,2.68-.44,64.28,64.28,0,0,1,6.56-.38c2.57,0,4.89.1,6.56.26A13.12,13.12,0,0,1,172.23,321Z" style="fill: rgb(69, 90, 100); transform-origin: 162.985px 320.799px;" id="elun92o69fwso" class="animable"></path><g id="elnf0fmfp58k9"><path d="M159.89,268.86s1.14,3.23,6.85,4.78,18.49,3.92,18.49,3.92l-.41-4.4S162.66,270.21,159.89,268.86Z" style="opacity: 0.3; transform-origin: 172.56px 273.21px;" class="animable" id="elrut3tp65dtk"></path></g></g><defs>     <filter id="active" height="200%">         <feMorphology in="SourceAlpha" result="DILATED" operator="dilate" radius="2"></feMorphology>                <feFlood flood-color="#32DFEC" flood-opacity="1" result="PINK"></feFlood>        <feComposite in="PINK" in2="DILATED" operator="in" result="OUTLINE"></feComposite>        <feMerge>            <feMergeNode in="OUTLINE"></feMergeNode>            <feMergeNode in="SourceGraphic"></feMergeNode>        </feMerge>    </filter>    <filter id="hover" height="200%">        <feMorphology in="SourceAlpha" result="DILATED" operator="dilate" radius="2"></feMorphology>                <feFlood flood-color="#ff0000" flood-opacity="0.5" result="PINK"></feFlood>        <feComposite in="PINK" in2="DILATED" operator="in" result="OUTLINE"></feComposite>        <feMerge>            <feMergeNode in="OUTLINE"></feMergeNode>            <feMergeNode in="SourceGraphic"></feMergeNode>        </feMerge>            <feColorMatrix type="matrix" values="0   0   0   0   0                0   1   0   0   0                0   0   0   0   0                0   0   0   1   0 "></feColorMatrix>    </filter></defs></svg>